<svg width="440" height="216" version="1.1" xmlns="http://www.w3.org/2000/svg" desc="Created with imagetracer.js version 1.2.6" ><path fill="rgb(26,26,26)" stroke="rgb(26,26,26)" stroke-width="1" opacity="0.9725490196078431" d="M 297.5 41 L 306 44.5 L 304.5 44 L 297.5 42 L 297.5 41 Z " /><path fill="rgb(26,26,26)" stroke="rgb(26,26,26)" stroke-width="1" opacity="0.9725490196078431" d="M 141.5 42 L 143 42.5 L 134.5 46 L 134 44 L 141.5 42 Z " /><path fill="rgb(26,26,26)" stroke="rgb(26,26,26)" stroke-width="1" opacity="0.9725490196078431" d="M 307 44 L 309 44.5 L 307 45.5 L 307 44 Z " /><path fill="rgb(26,26,26)" stroke="rgb(26,26,26)" stroke-width="1" opacity="0.9725490196078431" d="M 132.5 45 L 131.5 47 L 132.5 45 Z " /><path fill="rgb(26,26,26)" stroke="rgb(26,26,26)" stroke-width="1" opacity="0.9725490196078431" d="M 316.5 46 L 330.5 50 L 332.5 49 L 338 51.5 L 335 52.5 L 338 53.5 L 336 54 L 335.5 56 L 335 53 L 333 53 Q 334.1 55.7 331.5 55 L 327.5 52 L 324.5 52 L 323 52.5 L 324 50.5 L 321.5 50 L 315 47.5 L 316.5 46 Z M 333 51 L 332 53 L 335 52 L 333 51 Z " /><path fill="rgb(26,26,26)" stroke="rgb(26,26,26)" stroke-width="1" opacity="0.9725490196078431" d="M 110.5 49 L 112.5 50 L 115.5 49 L 115.5 51 L 119 51.5 L 115.5 52 L 113.5 51 L 113.5 55 L 111.5 55 Q 108.2 56.1 109 53.5 L 108.5 52 L 111.5 53 L 110.5 51 L 105.5 52 L 105.5 51 L 110.5 49 Z " /><path fill="rgb(26,26,26)" stroke="rgb(26,26,26)" stroke-width="1" opacity="0.9725490196078431" d="M 98.5 53 L 101.5 53 L 105 55 L 104.5 58 L 102.5 55 L 102 59 L 109.5 58 L 112.5 56 L 115 59.5 L 112 61.5 L 113.5 59 Q 107.2 58.2 104.5 61 L 102.5 61 Q 97.1 59.1 98 62.5 L 101 74.5 L 98.5 75 L 96 73.5 L 98 73.5 L 97 65.5 L 98 63.5 L 96.5 61 L 93.5 62 L 92 61.5 L 87.5 69 L 52.5 79 L 27.5 84 L 23.5 86 L 24 84.5 Q 23 80 25.5 79 L 67.5 62 L 69 62.5 Q 68.2 59.9 71.5 61 L 74 60.5 L 74.5 59 L 77 60 Q 75.9 56.5 83.5 58 L 83.5 60 Q 89.6 61.1 92 58.5 L 91.5 57 L 98.5 53 Z M 100 54 L 100 55 L 102 55 L 100 54 Z M 96 55 L 94 57 L 97 58 L 96 57 L 99 56 L 96 55 Z " /><path fill="rgb(26,26,26)" stroke="rgb(26,26,26)" stroke-width="1" opacity="0.9725490196078431" d="M 105.5 53 L 108 54.5 L 107.5 57 L 105.5 53 Z " /><path fill="rgb(26,26,26)" stroke="rgb(26,26,26)" stroke-width="1" opacity="0.9725490196078431" d="M 340.5 53 Q 344.3 52.3 345 54.5 L 344.5 56 L 346.5 55 L 347.5 57 L 349.5 57 L 366 58.5 L 365.5 60 L 374.5 63 L 376 62.5 L 375.5 64 L 382.5 66 L 384 65.5 L 383.5 67 L 387.5 68 L 389 67.5 Q 388.3 69.8 390.5 69 L 397.5 72 L 399 71.5 L 398.5 73 L 402.5 74 L 404 73.5 Q 403.3 75.8 405.5 75 L 407.5 76 L 409 75.5 L 408.5 77 L 412.5 78 L 414 77.5 L 413.5 79 L 415.5 78 L 415.5 80 L 417.5 79 Q 415.9 80.8 419 82.5 Q 420.3 86.7 415.5 85 L 357.5 70 L 352 66.5 L 349.5 61 L 347.5 61 L 345 63.5 L 346 66.5 L 344 71.5 L 344.5 75 L 339.5 75 L 331 71.5 Q 333.6 70.1 333 65.5 Q 331.5 62.5 330 65.5 L 329.5 72 Q 326.7 70.7 329 69.5 Q 327.5 62.5 330.5 63 L 330.5 61 L 332 61.5 Q 331.2 58.9 334.5 60 L 334.5 58 L 342.5 59 L 342.5 58 L 339.5 56 Q 338.3 58.3 337 55.5 L 340.5 53 Z M 356 59 L 356 60 L 360 60 L 356 59 Z M 337 60 L 337 61 L 340 61 L 337 60 Z M 334 61 L 334 62 L 336 62 L 334 61 Z M 333 63 L 333 65 L 338 65 Q 337 62 333 63 Z M 336 66 L 336 72 Q 338 75 343 73 L 344 70 L 344 66 L 336 66 Z " /><path fill="rgb(26,26,26)" stroke="rgb(26,26,26)" stroke-width="1" opacity="0.9725490196078431" d="M 329.5 55 L 331 58.5 L 330 58.5 L 329.5 55 Z " /><path fill="rgb(26,26,26)" stroke="rgb(26,26,26)" stroke-width="1" opacity="0.9725490196078431" d="M 328.5 59 L 328 60.5 L 327.5 62 L 327 60.5 L 328.5 59 Z " /><path fill="rgb(26,26,26)" stroke="rgb(26,26,26)" stroke-width="1" opacity="0.9725490196078431" d="M 110.5 60 L 111.5 63 L 114 63.5 L 114 70.5 L 107.5 73 L 108 71.5 L 107 65 L 103.5 66 L 102 63 L 108.5 62 L 110.5 60 Z M 110 64 L 111 71 L 112 71 Q 114 63 110 64 Z " /><path fill="rgb(26,26,26)" stroke="rgb(26,26,26)" stroke-width="1" opacity="0.9725490196078431" d="M 191.5 102 Q 196.3 101.3 197 104.5 L 197 111.5 L 195.5 112 L 195.5 114 L 194 113.5 Q 194.8 116.1 191.5 115 Q 187.9 112.9 188 108 Q 190.7 109.1 190 106.5 L 191.5 104 L 189.5 105 L 191.5 102 Z M 195 104 L 191 107 L 192 110 Q 195 111 194 108 L 194 106 Q 197 105 195 111 L 196 111 Q 197 105 195 104 Z M 192 110 L 190 112 L 193 112 L 192 110 Z " /><path fill="rgb(26,26,26)" stroke="rgb(26,26,26)" stroke-width="1" opacity="0.9725490196078431" d="M 248.5 102 L 252 103.5 L 250 104.5 L 252.5 106 L 254 105.5 L 254 107.5 L 253.5 112 L 249.5 105 L 248.5 107 L 248 105.5 L 249.5 103 L 247 104.5 L 246 108.5 L 247.5 112 L 248.5 110 L 250.5 113 L 252 113.5 L 248.5 115 Q 243.9 113.1 245 105.5 L 248.5 102 Z " /><path fill="rgb(26,26,26)" stroke="rgb(26,26,26)" stroke-width="1" opacity="0.9725490196078431" d="M 434.5 107 L 436 107.5 L 433 109.5 L 433.5 111 L 431.5 110 L 426.5 113 L 427.5 111 L 434.5 107 Z " /><path fill="rgb(26,26,26)" stroke="rgb(26,26,26)" stroke-width="1" opacity="0.9725490196078431" d="M 5.5 108 Q 7.8 107.3 7 109.5 L 5.5 108 Z " /><path fill="rgb(26,26,26)" stroke="rgb(26,26,26)" stroke-width="1" opacity="0.9725490196078431" d="M 8.5 109 L 12 111.5 L 10.5 111 L 8.5 109 Z " /><path fill="rgb(26,26,26)" stroke="rgb(26,26,26)" stroke-width="1" opacity="0.9725490196078431" d="M 421.5 114 L 423 114.5 L 418.5 117 L 419.5 115 L 421.5 114 Z " /><path fill="rgb(26,26,26)" stroke="rgb(26,26,26)" stroke-width="1" opacity="0.9725490196078431" d="M 200.5 117 L 206.5 119 L 209 118 L 209 125 L 211.5 125 L 212 122.5 Q 213.9 117.1 210.5 118 L 210.5 117 L 230 117.5 L 225 118.5 L 230 119 L 231 125 L 240 125 L 240 117.5 L 241 117.5 Q 242.1 126.1 238.5 130 L 235.5 131 L 234 130.5 Q 234.8 132.8 232.5 132 L 230 130.5 Q 230.7 133.1 228 132 Q 229 129 226 130 Q 227 133 224 132 Q 225 129 222 130 Q 223 133 220 132 L 219.5 130 L 216 132 L 215.5 130 L 212 132 L 211.5 130 L 211 132 Q 207.3 133.5 208 130.5 L 205.5 130 Q 200.9 131.3 203 125.5 L 197 129.5 L 198 128.5 L 198 120.5 Q 195.8 119.3 198.5 118 L 200.5 117 Z M 203 122 L 203 124 Q 205 127 206 124 Q 207 121 203 122 Z M 209 127 Q 207 130 210 129 L 209 127 Z M 221 127 L 221 130 Q 224 129 221 127 Z M 225 127 L 225 130 Q 228 129 225 127 Z " /><path fill="rgb(26,26,26)" stroke="rgb(26,26,26)" stroke-width="1" opacity="0.9725490196078431" d="M 416.5 117 L 415.5 119 L 414 118.5 L 416.5 117 Z " /><path fill="rgb(26,26,26)" stroke="rgb(26,26,26)" stroke-width="1" opacity="0.9725490196078431" d="M 411.5 119 L 413 119.5 L 406.5 123 L 407.5 121 L 411.5 119 Z " /><path fill="rgb(26,26,26)" stroke="rgb(26,26,26)" stroke-width="1" opacity="0.9725490196078431" d="M 186.5 120 L 187 122.5 L 186 122.5 L 186.5 120 Z " /><path fill="rgb(26,26,26)" stroke="rgb(26,26,26)" stroke-width="1" opacity="0.9725490196078431" d="M 255.5 120 L 256.5 122 Q 253.7 122.7 255.5 120 Z " /><path fill="rgb(26,26,26)" stroke="rgb(26,26,26)" stroke-width="1" opacity="0.9725490196078431" d="M 33.5 121 L 40.5 125 L 42 124.5 Q 41.3 126.8 43.5 126 L 47 127 L 46.5 129 L 35.5 123 L 34 123.5 L 33.5 121 Z " /><path fill="rgb(26,26,26)" stroke="rgb(26,26,26)" stroke-width="1" opacity="0.9725490196078431" d="M 55.5 123 L 56.5 125 L 54 124.5 L 55.5 123 Z " /><path fill="rgb(26,26,26)" stroke="rgb(26,26,26)" stroke-width="1" opacity="0.9725490196078431" d="M 386.5 123 L 392.5 126 L 404.5 123 L 404 124.5 L 403.5 126 L 401.5 126 L 392 128.5 L 392.5 130 L 389 128.5 L 391 128 L 390.5 126 L 384 129.5 L 386.5 130 L 388 129.5 L 386.5 132 L 384.5 131 Q 381.3 132.2 382 136 Q 384.7 134.9 384 137.5 L 382.5 137 Q 380.3 137.8 381 135.5 L 380 135.5 L 381 141.5 L 379 151 L 384 151 L 384 148.5 Q 386.7 146.8 385 140.5 L 384.5 139 L 388.5 139 L 392.5 136 L 393.5 138 L 390 138.5 Q 393.5 140 391 141.5 L 389.5 147 L 389 143.5 L 391 140.5 L 387.5 140 Q 384.8 141.3 387 142.5 L 386 150.5 L 383.5 154 L 381.5 153 L 378 154 L 376.5 147 L 375 150 L 368.5 148 L 368.5 150 L 365.5 149 L 365.5 151 L 362.5 150 L 362.5 152 L 358.5 151 L 356 152.5 L 356.5 154 L 352.5 153 L 348.5 155 L 329.5 159 L 325 152.5 L 330.5 148 L 336.5 146 L 345 140.5 L 343 139.5 L 354.5 133 L 356 133.5 L 356.5 132 L 358 132.5 L 358.5 131 L 360 131.5 Q 359.4 128.8 365.5 130 Q 367 132.5 372.5 131 L 375.5 129 L 375.5 131 L 378.5 132 L 377.5 127 L 381.5 127 L 385.5 128 Q 388.5 126.5 385.5 125 L 382.5 126 L 382.5 125 L 386.5 123 Z M 381 128 L 378 130 L 382 130 Q 383 127 381 128 Z M 370 132 L 370 133 L 375 133 L 370 132 Z M 374 145 L 374 147 L 376 146 L 374 145 Z " /><path fill="rgb(26,26,26)" stroke="rgb(26,26,26)" stroke-width="1" opacity="0.9725490196078431" d="M 63 127 Q 65.7 125.9 65 128.5 L 65.5 131 L 67.5 130 L 67 131.5 L 67 134 L 73.5 134 Q 74.7 131.7 79.5 133 L 97.5 142 L 102.5 146 L 109 148 L 110.5 151 L 117 154.5 L 114 160 Q 111 161 112 158 L 108.5 158 L 88.5 153 L 86.5 154 L 84 153 Q 85.1 150.3 82.5 151 L 80.5 152 L 80.5 150 L 77.5 151 L 77.5 149 L 74.5 150 L 74.5 148 L 72 149.5 L 70.5 152 L 67.5 148 L 66 148.5 Q 69.1 150.3 67.5 152 L 69 152.5 L 67.5 153 L 65.5 153 L 60 154 L 58.5 151 L 57 151.5 L 57.5 153 L 55.5 154 L 55 151.5 L 55 149.5 L 54 142 L 52 141.5 L 52.5 139 L 55 139.5 L 54 141.5 L 56.5 146 L 57 139.5 L 53 137.5 L 59.5 137 L 59.5 139 L 63 138 Q 64.5 134.2 61.5 135 Q 59.8 137.8 53.5 136 L 54.5 134 L 60.5 135 L 60 133.5 L 59 131.5 Q 60.4 128.9 65 129.5 L 63 129 L 63 127 Z M 60 142 L 58 144 L 60 149 L 60 151 L 65 151 Q 66 146 63 145 L 64 143 L 63 143 L 60 142 Z M 56 148 L 56 150 L 58 149 L 56 148 Z " /><path fill="rgb(26,26,26)" stroke="rgb(26,26,26)" stroke-width="1" opacity="0.9725490196078431" d="M 56.5 128 L 60 128.5 L 56.5 129 L 56.5 128 Z " /><path fill="rgb(26,26,26)" stroke="rgb(26,26,26)" stroke-width="1" opacity="0.9725490196078431" d="M 55.5 130 L 58 130.5 Q 55.9 133.8 55.5 130 Z " /><path fill="rgb(26,26,26)" stroke="rgb(26,26,26)" stroke-width="1" opacity="0.9725490196078431" d="M 81.5 130 L 85 131 L 85.5 133 Q 86.8 130.8 88 133.5 L 85.5 134 L 81 131.5 L 81.5 130 Z " /><path fill="rgb(26,26,26)" stroke="rgb(26,26,26)" stroke-width="1" opacity="0.9725490196078431" d="M 51.5 131 L 53 133.5 L 51 134 L 51.5 131 Z " /><path fill="rgb(26,26,26)" stroke="rgb(26,26,26)" stroke-width="1" opacity="0.9725490196078431" d="M 194.5 131 L 195 133.5 L 194 133.5 L 194.5 131 Z " /><path fill="rgb(26,26,26)" stroke="rgb(26,26,26)" stroke-width="1" opacity="0.9725490196078431" d="M 49.5 134 L 52 135 Q 53.1 137.7 50.5 137 L 50.5 139 Q 48.3 139.8 49 137.5 L 48.5 136 L 50 136.5 L 49.5 134 Z " /><path fill="rgb(26,26,26)" stroke="rgb(26,26,26)" stroke-width="1" opacity="0.9725490196078431" d="M 247.5 135 L 248 138 L 253.5 140 L 255 139.5 Q 252.5 141 256 142.5 Q 257.1 145.8 254.5 145 L 253 144.5 L 252.5 147 L 250 146.5 Q 250.7 143.9 248 145 L 248 153.5 L 249.5 155 L 250.5 153 L 253 154 L 253.5 157 L 254.5 154 L 255 157 L 257.5 156 L 258 161.5 L 256 161.5 L 255.5 163 L 254.5 161 L 253.5 163 L 253 161 L 250.5 160 L 247 162.5 L 247.5 166 L 246 165.5 L 247 170.5 L 246.5 173 Q 244.3 172.3 245 174.5 L 245.5 176 L 244 175.5 L 243 177.5 L 243.5 179 L 241.5 178 Q 236.7 180.5 238.5 183 Q 234.7 185.7 226.5 184 L 225.5 182 Q 227.8 182.8 227 180.5 L 225.5 178 L 224.5 180 L 224 175 L 230 174.5 L 226 169.5 L 227 169.5 L 230.5 174 Q 232.8 173.3 232 175.5 L 231 179.5 Q 232.3 182.2 233.5 180 L 240 177.5 L 239.5 175 L 238 175.5 Q 237.2 172.9 240.5 174 Q 246.1 172.1 245 163.5 L 244 162.5 L 244 144.5 L 245 144.5 L 245.5 146 L 246.5 140 L 247 143 Q 251.9 144.6 250 139 L 247 137.5 L 247.5 135 Z M 248 158 L 247 161 L 248 161 L 248 158 Z M 235 182 L 235 183 L 237 183 L 235 182 Z " /><path fill="rgb(26,26,26)" stroke="rgb(26,26,26)" stroke-width="1" opacity="0.9725490196078431" d="M 193.5 136 Q 195.8 135.3 195 137.5 Q 192 138.9 192.5 144 L 191 141.5 L 192 139.5 L 190.5 140 L 186.5 142 L 188.5 139 L 193.5 136 Z " /><path fill="rgb(26,26,26)" stroke="rgb(26,26,26)" stroke-width="1" opacity="0.9725490196078431" d="M 221.5 139 L 236.5 139 L 239 141.5 L 240 147.5 L 239 147.5 L 238.5 143 L 237.5 145 L 237 143 L 235 142.5 L 235.5 141 L 232.5 142 L 232 140 L 228 141.5 L 227 146.5 L 228 146.5 L 228.5 144 L 230.5 144 L 233 144.5 L 232.5 146 L 235.5 147 L 237 146.5 Q 235.8 150.3 229.5 149 L 229.5 147 L 227 148.5 L 227.5 150 L 238.5 150 L 240 149.5 L 238.5 151 L 224 151 L 221.5 155 L 219 143.5 L 222 142.5 Q 218.3 140.8 221.5 139 Z M 225 146 L 224 150 L 225 150 L 225 146 Z " /><path fill="rgb(26,26,26)" stroke="rgb(26,26,26)" stroke-width="1" opacity="0.9725490196078431" d="M 206.5 140 L 205.5 142 L 206.5 140 Z " /><path fill="rgb(26,26,26)" stroke="rgb(26,26,26)" stroke-width="1" opacity="0.9725490196078431" d="M 212.5 140 L 216 142.5 L 217 146.5 L 212.5 152 Q 206.4 152.8 204 151 L 203.5 155 L 202 145.5 L 203 145.5 Q 202.3 149.3 204.5 150 L 206.5 151 L 207 149.5 L 206 147.5 L 208.5 149 Q 213.3 149.8 214 146.5 L 215 142.5 L 212.5 140 Z " /><path fill="rgb(26,26,26)" stroke="rgb(26,26,26)" stroke-width="1" opacity="0.9725490196078431" d="M 209 141 L 211 141 L 211 146 L 209 145.5 L 209 143.5 L 209 141 Z " /><path fill="rgb(26,26,26)" stroke="rgb(26,26,26)" stroke-width="1" opacity="0.9725490196078431" d="M 187.5 143 L 188 146.5 L 187 146.5 L 187.5 143 Z " /><path fill="rgb(26,26,26)" stroke="rgb(26,26,26)" stroke-width="1" opacity="0.9725490196078431" d="M 388.5 148 L 389 153.5 L 387.5 153 L 386 152.5 L 388.5 148 Z " /><path fill="rgb(26,26,26)" stroke="rgb(26,26,26)" stroke-width="1" opacity="0.9725490196078431" d="M 371.5 150 L 376 151.5 Q 374.8 154.3 373.5 152 L 371.5 150 Z " /><path fill="rgb(26,26,26)" stroke="rgb(26,26,26)" stroke-width="1" opacity="0.9725490196078431" d="M 187.5 155 L 188.5 160 L 189.5 155 L 190 158 L 195 160 L 194.5 165 L 189.5 162 L 188.5 165 L 187.5 161 L 187 163 Q 184.3 164.1 185 161.5 L 187.5 155 Z " /><path fill="rgb(26,26,26)" stroke="rgb(26,26,26)" stroke-width="1" opacity="0.9725490196078431" d="M 66.5 156 L 68 156.5 L 65.5 158 L 66.5 156 Z " /><path fill="rgb(26,26,26)" stroke="rgb(26,26,26)" stroke-width="1" opacity="0.9725490196078431" d="M 215.5 156 Q 220 155 221 157.5 L 224 168.5 L 223 168.5 L 220.5 163 Q 219 166.5 217.5 164 Q 215.3 164.8 216 162.5 L 215.5 161 L 217.5 162 L 216.5 160 L 212.5 158 L 209 160.5 Q 207.5 164.9 210.5 164 L 212.5 164 L 215 164.5 L 212 165 L 210 168.5 Q 211.6 171.4 217 170.5 L 211.5 171 Q 210.4 168.3 207 169 L 207.5 172 L 220.5 172 L 220.5 173 L 206.5 173 L 206 169.5 L 204 159.5 L 215.5 156 Z M 219 158 L 220 160 Q 221 157 219 158 Z " /><path fill="rgb(26,26,26)" stroke="rgb(26,26,26)" stroke-width="1" opacity="0.9725490196078431" d="M 232.5 160 L 239.5 160 L 240 162.5 L 241 165 L 239 165 Q 240.1 162.3 237.5 163 L 234.5 162 L 231 164 L 233.5 170 L 235 170.5 L 232.5 171 L 229.5 167 L 228 167.5 Q 227.4 162.4 230.5 161 L 232.5 160 Z " /><path fill="rgb(26,26,26)" stroke="rgb(26,26,26)" stroke-width="1" opacity="0.9725490196078431" d="M 224.5 170 L 225 171.5 L 223 172.5 L 224.5 170 Z " /><path fill="rgb(26,26,26)" stroke="rgb(26,26,26)" stroke-width="1" opacity="0.9725490196078431" d="M 204.5 174 L 207 174.5 L 204.5 175 L 204.5 174 Z " /><path fill="rgb(26,26,26)" stroke="rgb(26,26,26)" stroke-width="1" opacity="0.9725490196078431" d="M 234.5 174 L 233.5 176 L 234.5 174 Z " /><path fill="rgb(26,26,26)" stroke="rgb(26,26,26)" stroke-width="1" opacity="0.9725490196078431" d="M 198.5 177 L 203 179.5 L 204.5 182 L 216 182.5 L 204.5 183 Q 202.2 178.8 200 180.5 Q 202.3 179.3 199.5 178 L 198.5 177 Z " /><path fill="rgb(26,26,26)" stroke="rgb(26,26,26)" stroke-width="1" opacity="0.9725490196078431" d="M 232.5 177 L 233.5 179 L 232.5 177 Z " /><path fill="rgb(133,131,132)" stroke="rgb(133,131,132)" stroke-width="1" opacity="0.8431372549019608" d="M 257.5 23 Q 264.4 23.6 268 27.5 L 266 27.5 Q 265.3 29.8 267.5 29 L 267.5 30 L 263.5 31 L 255 27 Q 253.5 23.3 256.5 24 L 257.5 23 Z M 259 25 L 258 27 Q 261 26 260 29 L 263 29 Q 266 30 265 27 L 259 25 Z " /><path fill="rgb(133,131,132)" stroke="rgb(133,131,132)" stroke-width="1" opacity="0.8431372549019608" d="M 180.5 24 Q 186.5 22.5 188 25.5 Q 188.8 27.8 186.5 27 Q 184.8 30.1 183 28.5 Q 183.8 30.8 181.5 30 L 184.5 25 L 181.5 26 L 180.5 24 Z " /><path fill="rgb(133,131,132)" stroke="rgb(133,131,132)" stroke-width="1" opacity="0.8431372549019608" d="M 178.5 25 L 179.5 27 L 174.5 28 L 175.5 26 L 178.5 25 Z " /><path fill="rgb(133,131,132)" stroke="rgb(133,131,132)" stroke-width="1" opacity="0.8431372549019608" d="M 205.5 26 L 209 30.5 L 209 45.5 L 212 48.5 L 211.5 50 Q 216.6 53.4 226.5 52 L 231.5 50 L 233 50.5 L 234 32.5 L 235 31.5 L 235 29.5 L 236.5 26 L 238 27.5 L 238 42.5 L 237 46.5 L 239.5 51 L 241 48.5 L 240.5 47 L 245.5 46 L 247 46.5 L 246 44.5 L 247.5 43 L 251 46.5 L 253 53.5 L 253 55.5 L 252 63.5 L 253 68.5 L 260 79.5 L 260 84 L 271.5 82 L 273.5 82 L 286.5 81 L 301.5 78 L 303.5 78 L 323.5 76 L 325.5 74 L 327 74.5 Q 325.5 70.1 328.5 71 L 334 73.5 L 334 75.5 Q 332.8 79.3 336.5 78 L 338.5 75 L 339.5 77 Q 340.3 74.3 344.5 75 L 343.5 77 Q 341.3 76.3 342 78.5 L 343 80.5 L 342.5 83 Q 341.3 80.8 340 83.5 L 340.5 85 L 342 84.5 L 338 104.5 L 336.5 106 Q 332 107 331 104.5 L 331 93.5 Q 334 90.3 333 84 L 313.5 88 L 309 87 Q 310.3 90.3 305.5 89 L 289.5 92 L 286.5 91 L 286.5 92 L 288 92.5 L 277.5 94 L 273.5 93 L 273.5 94 L 276 94.5 L 272.5 95 L 268.5 94 Q 267 97.5 265.5 95 L 259 96 L 258.5 91 L 257 102.5 Q 259.5 104 256 105.5 L 256.5 108 L 259.5 104 L 260.5 108 L 261.5 105 Q 262 110.5 266.5 112 L 328.5 135 L 330.5 135 L 339 138 L 340 140.5 L 331.5 146 Q 330.1 143.4 325.5 144 L 324 144.5 L 324.5 143 L 321.5 144 L 321.5 142 L 318.5 143 L 318.5 141 L 315.5 142 L 315.5 140 L 312.5 141 L 312.5 139 L 308 138 L 308 133 L 305.5 133 L 304 136 Q 301.3 137.1 302 134.5 L 303 132.5 L 300.5 131 L 298 132.5 L 299 130 L 296.5 131 L 297.5 129 L 308.5 132 L 310.5 134 L 312.5 134 L 338 142 Q 339.3 139 335.5 140 L 263 113 L 264.5 117 L 273 120.5 L 272 122.5 L 273.5 122 Q 278.9 120.1 278 123.5 L 279.5 123 L 282 123 L 282 129 L 279.5 130 L 279.5 128 L 259 120.5 Q 260.5 115 258 113.5 L 261 112 Q 262.1 109.3 259.5 110 L 256 112.5 Q 256.8 114.8 254.5 114 L 252.5 115 L 254 112.5 L 255 106.5 L 255 104.5 L 254.5 103 Q 253 105.5 251.5 102 L 250 101.5 L 251.5 101 L 254 102.5 L 255 100.5 Q 252.5 99 256 97.5 L 255 94.5 Q 257.3 93.3 256 88.5 L 255 86 Q 257.7 87.1 257 84.5 L 256 81.5 L 257 79.5 L 249.5 70 L 242 64.5 L 240 52.5 L 238.5 51 Q 232.4 49.2 235 56.5 L 234 56.5 Q 235.5 52.1 232.5 53 L 229.5 54 Q 228 51.5 222.5 53 L 221.5 54 L 210.5 54 L 208 53 L 207.5 59 L 207 51 Q 202.9 52.7 204 48.5 L 205 43 L 203 42.5 L 205 31.5 L 205 29.5 L 205.5 26 Z M 242 49 L 241 53 L 242 53 L 242 49 Z M 336 88 L 336 90 L 335 94 L 337 93 Q 339 87 336 88 Z M 333 94 L 332 99 L 333 99 L 333 94 Z M 337 94 L 335 96 L 335 103 L 333 103 L 333 100 L 332 105 L 336 104 L 337 99 L 337 94 Z " /><path fill="rgb(133,131,132)" stroke="rgb(133,131,132)" stroke-width="1" opacity="0.8431372549019608" d="M 174.5 29 L 176.5 30 L 180 29 Q 181.3 32 177.5 31 L 174.5 32 L 171.5 31 L 163.5 34 L 163.5 33 L 174.5 29 Z " /><path fill="rgb(133,131,132)" stroke="rgb(133,131,132)" stroke-width="1" opacity="0.8431372549019608" d="M 194.5 44 Q 196.8 43.3 196 45.5 L 195.5 47 L 197.5 46 L 203 48.5 L 200.5 49 L 199 49.5 L 200.5 54 L 201.5 51 L 203 52.5 Q 199.5 54 202 55.5 L 201 64 L 198 64.5 Q 200.8 66.3 196.5 68 L 189 73.5 L 186 78.5 L 185 84.5 L 187 88.5 L 186 93.5 L 189 100.5 L 188.5 102 L 194.5 101 L 196.5 104 Q 195.5 101 190.5 102 L 187.5 107 Q 183.8 102.8 185 93.5 L 183.5 92 L 183 93.5 L 184 96 L 176.5 95 L 173.5 96 L 172 95.5 L 174 94.5 L 170.5 94 L 166.5 95 L 136.5 89 L 130.5 89 L 119.5 86 L 114.5 86 L 109.5 84 L 110 85.5 L 110 103.5 L 111 104.5 Q 110 107 105.5 106 L 103 100.5 L 103 98.5 L 102 88.5 L 100 83.5 L 102 83.5 L 100.5 81 L 99 81.5 Q 101.5 80 98 78.5 Q 96.7 73.7 100 75 L 99 79 L 102 79 Q 101 76 104 77 L 104 79 L 109 79 L 108 76.5 L 109.5 74 L 108 73.5 L 114.5 71 L 115 73 Q 117.7 71.9 117 74.5 L 118.5 76 L 132.5 77 L 139.5 79 L 141.5 78 L 148.5 80 L 150.5 80 L 168.5 82 L 169.5 83 L 179.5 83 L 182 84 L 183 78.5 L 188 71.5 L 191 59.5 L 189 52.5 L 192 45 L 194.5 44 Z M 104 87 L 104 89 L 104 91 L 106 97 Q 104 104 109 102 L 108 100 L 109 98 L 108 97 L 108 89 L 106 89 Q 107 86 104 87 Z M 131 87 L 131 88 L 133 88 L 131 87 Z M 167 93 L 167 94 L 169 94 L 167 93 Z " /><path fill="rgb(133,131,132)" stroke="rgb(133,131,132)" stroke-width="1" opacity="0.8431372549019608" d="M 217 64 L 224.5 64 L 226 65.5 L 224.5 66 L 221.5 65 L 217 66 L 217 64 Z " /><path fill="rgb(133,131,132)" stroke="rgb(133,131,132)" stroke-width="1" opacity="0.8431372549019608" d="M 102.5 66 L 104 72.5 L 102 71.5 L 102.5 66 Z " /><path fill="rgb(133,131,132)" stroke="rgb(133,131,132)" stroke-width="1" opacity="0.8431372549019608" d="M 342.5 66 L 343 71.5 L 340.5 73 L 341 71.5 Q 340 67 342.5 66 Z " /><path fill="rgb(133,131,132)" stroke="rgb(133,131,132)" stroke-width="1" opacity="0.8431372549019608" d="M 217.5 68 L 218 70 L 223.5 70 Q 222.9 67.3 226 68 L 226 73 L 216 73 Q 215 69.2 217.5 68 Z " /><path fill="rgb(133,131,132)" stroke="rgb(133,131,132)" stroke-width="1" opacity="0.8431372549019608" d="M 100.5 69 L 101 72.5 L 100 72.5 L 100.5 69 Z " /><path fill="rgb(133,131,132)" stroke="rgb(133,131,132)" stroke-width="1" opacity="0.8431372549019608" d="M 194.5 72 L 197.5 73 L 199 72.5 L 195.5 74 L 194.5 72 Z " /><path fill="rgb(133,131,132)" stroke="rgb(133,131,132)" stroke-width="1" opacity="0.8431372549019608" d="M 245 72 Q 248 71 247 74 Q 244 75 245 72 Z " /><path fill="rgb(133,131,132)" stroke="rgb(133,131,132)" stroke-width="1" opacity="0.8431372549019608" d="M 20.5 81 Q 25.1 79.7 23 85.5 L 22 85.5 Q 22.8 82.9 19.5 84 L 19.5 86 L 17.5 87 L 15 85.5 L 17 84.5 L 16.5 83 L 20.5 81 Z " /><path fill="rgb(133,131,132)" stroke="rgb(133,131,132)" stroke-width="1" opacity="0.8431372549019608" d="M 419.5 81 L 421 85.5 L 420 85.5 L 419.5 81 Z " /><path fill="rgb(133,131,132)" stroke="rgb(133,131,132)" stroke-width="1" opacity="0.8431372549019608" d="M 423.5 84 L 427 85.5 Q 425.8 88.3 424.5 86 Q 421.7 86.7 423.5 84 Z " /><path fill="rgb(133,131,132)" stroke="rgb(133,131,132)" stroke-width="1" opacity="0.8431372549019608" d="M 111.5 91 L 112 99.5 L 111 99.5 L 111.5 91 Z " /><path fill="rgb(133,131,132)" stroke="rgb(133,131,132)" stroke-width="1" opacity="0.8431372549019608" d="M 177.5 96 L 180 96.5 L 177.5 97 L 177.5 96 Z " /><path fill="rgb(133,131,132)" stroke="rgb(133,131,132)" stroke-width="1" opacity="0.8431372549019608" d="M 262.5 96 L 265 96.5 L 262.5 97 L 262.5 96 Z " /><path fill="rgb(133,131,132)" stroke="rgb(133,131,132)" stroke-width="1" opacity="0.8431372549019608" d="M 183.5 97 L 184 99.5 L 183 99.5 L 183.5 97 Z " /><path fill="rgb(133,131,132)" stroke="rgb(133,131,132)" stroke-width="1" opacity="0.8431372549019608" d="M 4.5 102 Q 10.3 101.2 12 104.5 L 5.5 108 L 3.5 108 L 1 105.5 L 2.5 103 L 4.5 102 Z M 6 104 L 7 106 L 10 105 L 6 104 Z " /><path fill="rgb(133,131,132)" stroke="rgb(133,131,132)" stroke-width="1" opacity="0.8431372549019608" d="M 433.5 102 Q 437.9 100.5 437 103.5 L 439 103.5 L 436.5 107 L 433 105.5 L 433.5 104 L 431.5 105 L 431 103 L 433.5 102 Z " /><path fill="rgb(133,131,132)" stroke="rgb(133,131,132)" stroke-width="1" opacity="0.8431372549019608" d="M 183.5 104 L 184 106.5 Q 181.3 108.3 185.5 110 L 187 109.5 L 190.5 115 L 194.5 115 L 203.5 110 L 239.5 110 L 244.5 113 L 246 112.5 L 245.5 114 L 251 115.5 Q 249.6 118.6 244.5 118 L 239.5 115 L 238.5 116 L 200.5 116 Q 198.8 118.8 193.5 118 L 187 112.5 L 186.5 111 Q 185 113.5 183.5 110 L 181.5 109 L 181 110.5 L 182 113 Q 184.7 111.9 184 114.5 Q 181.8 115.8 183 120.5 L 181.5 122 L 174 124.5 L 174.5 126 L 171.5 125 L 171.5 126 L 173 126.5 L 171.5 127 L 168.5 126 L 168.5 127 L 170 127.5 L 168.5 128 L 165.5 127 L 165.5 128 L 167 128.5 L 165.5 129 L 163.5 128 L 163.5 130 L 160.5 129 L 157 130.5 L 157.5 132 L 153.5 133 L 151.5 132 L 151.5 134 L 138.5 138 L 136.5 137 L 136.5 139 L 129.5 141 L 126.5 140 L 126.5 141 L 128 141.5 L 126.5 142 L 123.5 141 L 123.5 142 L 125 142.5 L 123.5 143 L 120.5 142 L 120.5 143 L 122 143.5 L 120.5 144 L 117.5 143 L 117.5 145 L 114.5 144 L 111.5 146 L 106 142.5 L 109.5 140 L 120.5 138 L 123.5 136 L 127.5 136 L 130 136.5 L 129.5 138 L 135.5 135 L 137 135.5 L 137.5 133 L 140.5 135 L 143.5 133 L 144 135 L 146 134.5 L 145.5 133 L 152.5 130 L 162.5 128 L 166.5 125 L 168.5 125 L 173 122.5 L 172.5 121 L 174 121.5 L 175 118 L 180 115.5 L 178 115 L 177.5 113 L 164.5 119 L 104 140.5 L 104.5 142 L 103 139.5 L 107.5 136 L 113.5 135 L 121.5 131 L 124.5 131 L 160.5 118 L 162 118.5 Q 161.3 116.3 163.5 117 L 165 117.5 L 165.5 116 L 167 116.5 Q 166.2 113.9 169.5 115 L 181 108.5 L 180 106 L 183.5 104 Z " /><path fill="rgb(133,131,132)" stroke="rgb(133,131,132)" stroke-width="1" opacity="0.8431372549019608" d="M 244.5 106 L 245 110.5 L 244 110.5 L 244.5 106 Z " /><path fill="rgb(133,131,132)" stroke="rgb(133,131,132)" stroke-width="1" opacity="0.8431372549019608" d="M 191.5 122 L 193 127.5 L 191.5 127 L 188 126 L 187 123.5 L 191.5 122 Z " /><path fill="rgb(133,131,132)" stroke="rgb(133,131,132)" stroke-width="1" opacity="0.8431372549019608" d="M 249 122 L 252.5 123 L 254 122.5 L 255 124.5 L 253 125.5 L 252.5 124 L 251.5 127 L 249.5 128 L 250 126.5 L 249 122 Z " /><path fill="rgb(133,131,132)" stroke="rgb(133,131,132)" stroke-width="1" opacity="0.8431372549019608" d="M 284.5 124 L 285.5 126 Q 282.7 126.7 284.5 124 Z " /><path fill="rgb(133,131,132)" stroke="rgb(133,131,132)" stroke-width="1" opacity="0.8431372549019608" d="M 287.5 125 Q 289 128.5 290.5 126 L 295 128.5 L 292 129 L 291.5 127 L 289.5 128 L 287 127.5 L 287.5 125 Z " /><path fill="rgb(133,131,132)" stroke="rgb(133,131,132)" stroke-width="1" opacity="0.8431372549019608" d="M 201.5 127 Q 201 132.5 204.5 134 L 206.5 134 L 211.5 135 L 213.5 134 L 215.5 135 L 216.5 134 L 239 134 L 238.5 138 L 220.5 138 L 216.5 140 L 215.5 139 L 206.5 139 Q 201.6 140.6 201.5 147 L 200 144 Q 197.3 145.1 198 142.5 Q 194.5 141 196 134.5 L 201.5 127 Z " /><path fill="rgb(133,131,132)" stroke="rgb(133,131,132)" stroke-width="1" opacity="0.8431372549019608" d="M 283.5 127 L 285 130 Q 281.5 131.1 283.5 127 Z " /><path fill="rgb(133,131,132)" stroke="rgb(133,131,132)" stroke-width="1" opacity="0.8431372549019608" d="M 287.5 130 L 287.5 132 L 290 131.5 L 289.5 130 L 290.5 133 L 294.5 131 L 295 133 L 293 133.5 L 295.5 134 L 297 133.5 L 296.5 135 L 299.5 134 L 299.5 136 L 301 136.5 L 299.5 137 L 284 131.5 L 287.5 130 Z " /><path fill="rgb(133,131,132)" stroke="rgb(133,131,132)" stroke-width="1" opacity="0.8431372549019608" d="M 305.5 136 L 305.5 138 L 307 138.5 L 305.5 139 L 303 137.5 L 305.5 136 Z " /><path fill="rgb(133,131,132)" stroke="rgb(133,131,132)" stroke-width="1" opacity="0.8431372549019608" d="M 49.5 139 L 51 139.5 L 49 140.5 L 51 141.5 L 47.5 143 L 48 141.5 L 49.5 139 Z " /><path fill="rgb(133,131,132)" stroke="rgb(133,131,132)" stroke-width="1" opacity="0.8431372549019608" d="M 212.5 141 L 214 143.5 L 213 143.5 L 212.5 141 Z " /><path fill="rgb(133,131,132)" stroke="rgb(133,131,132)" stroke-width="1" opacity="0.8431372549019608" d="M 392.5 141 Q 395.9 140.1 394 145.5 L 391.5 151 L 389 150.5 L 392.5 141 Z " /><path fill="rgb(133,131,132)" stroke="rgb(133,131,132)" stroke-width="1" opacity="0.8431372549019608" d="M 208.5 142 L 209 144.5 L 208 144.5 L 208.5 142 Z " /><path fill="rgb(133,131,132)" stroke="rgb(133,131,132)" stroke-width="1" opacity="0.8431372549019608" d="M 232.5 142 L 231.5 144 L 232.5 142 Z " /><path fill="rgb(133,131,132)" stroke="rgb(133,131,132)" stroke-width="1" opacity="0.8431372549019608" d="M 242.5 143 L 243 146.5 L 242 146.5 L 241 144.5 L 242.5 143 Z " /><path fill="rgb(133,131,132)" stroke="rgb(133,131,132)" stroke-width="1" opacity="0.8431372549019608" d="M 53.5 144 L 54 146.5 L 53 146.5 L 53.5 144 Z " /><path fill="rgb(133,131,132)" stroke="rgb(133,131,132)" stroke-width="1" opacity="0.8431372549019608" d="M 238.5 146 L 239 149.5 L 237.5 149 L 236 148.5 L 238.5 146 Z " /><path fill="rgb(133,131,132)" stroke="rgb(133,131,132)" stroke-width="1" opacity="0.8431372549019608" d="M 49.5 148 L 50 150 L 52 150.5 Q 49.8 151.8 52.5 153 Q 55.2 155.8 61.5 155 L 75.5 150 L 85 153.5 L 71.5 161 L 65 162.5 L 70.5 164 L 74 162 L 76 171.5 L 78 192.5 L 75.5 193 L 74 193.5 L 76 194.5 L 72.5 195 L 68 187.5 L 69 186.5 L 66 181.5 L 61 164.5 Q 63.3 163.3 60.5 162 L 55.5 163 L 49 160 L 50 152.5 L 49.5 148 Z M 67 155 L 65 159 L 68 158 L 67 155 Z M 53 158 L 52 160 Q 56 161 55 159 L 53 158 Z " /><path fill="rgb(133,131,132)" stroke="rgb(133,131,132)" stroke-width="1" opacity="0.8431372549019608" d="M 193.5 149 L 194 153.5 L 193 153.5 L 193.5 149 Z " /><path fill="rgb(133,131,132)" stroke="rgb(133,131,132)" stroke-width="1" opacity="0.8431372549019608" d="M 120.5 150 L 126.5 157 L 125 157.5 L 125.5 159 Q 122.7 157.8 125 156.5 L 120 151.5 L 120.5 150 Z " /><path fill="rgb(133,131,132)" stroke="rgb(133,131,132)" stroke-width="1" opacity="0.8431372549019608" d="M 215.5 150 L 220 152 L 218.5 155 L 204.5 157 L 205 155.5 L 206.5 153 Q 213.6 154.1 215.5 150 Z " /><path fill="rgb(133,131,132)" stroke="rgb(133,131,132)" stroke-width="1" opacity="0.8431372549019608" d="M 368.5 150 Q 375 155.5 387.5 155 L 391.5 152 L 392 156 L 390 156.5 L 392 157 L 390.5 160 Q 388.3 160.8 389 158.5 L 389.5 157 L 387 158.5 L 385.5 162 L 374.5 162 L 358 153.5 L 365.5 151 Q 367 153.5 368.5 150 Z M 376 155 L 374 158 L 377 159 L 378 157 L 376 155 Z " /><path fill="rgb(133,131,132)" stroke="rgb(133,131,132)" stroke-width="1" opacity="0.8431372549019608" d="M 239.5 151 L 241 155 Q 244 153.8 243 157.5 L 241.5 157 L 223 155.5 Q 224.4 152.9 229 153.5 L 227 152.5 L 235 152 L 235.5 154 L 239.5 151 Z " /><path fill="rgb(133,131,132)" stroke="rgb(133,131,132)" stroke-width="1" opacity="0.8431372549019608" d="M 322.5 151 L 323 152.5 L 322.5 154 L 324.5 153 L 328 160 L 321.5 161 L 321.5 159 L 319.5 160 L 320 158.5 L 319.5 156 L 319 158 Q 316.3 159.1 317 156.5 L 322.5 151 Z " /><path fill="rgb(133,131,132)" stroke="rgb(133,131,132)" stroke-width="1" opacity="0.8431372549019608" d="M 118.5 153 L 118.5 155 L 122 156.5 L 124 159.5 L 120.5 161 L 118.5 160 L 115 161 Q 113.5 157.2 116.5 158 L 116.5 156 L 118 155.5 Q 115.8 154.3 118.5 153 Z " /><path fill="rgb(133,131,132)" stroke="rgb(133,131,132)" stroke-width="1" opacity="0.8431372549019608" d="M 210.5 159 L 214 159.5 L 210 160.5 L 211.5 163 L 209 161.5 L 210.5 159 Z " /><path fill="rgb(133,131,132)" stroke="rgb(133,131,132)" stroke-width="1" opacity="0.8431372549019608" d="M 369.5 162 L 375.5 165 L 379 165 L 380 169.5 L 378 172.5 L 372 192.5 L 369.5 195 L 366.5 193 L 366.5 195 L 365 193.5 L 365 183.5 L 366 182.5 L 367.5 164 L 368.5 169 L 369.5 162 Z " /><path fill="rgb(133,131,132)" stroke="rgb(133,131,132)" stroke-width="1" opacity="0.8431372549019608" d="M 234.5 163 L 235.5 165 L 234.5 163 Z " /><path fill="rgb(133,131,132)" stroke="rgb(133,131,132)" stroke-width="1" opacity="0.8431372549019608" d="M 237.5 163 L 238.5 165 Q 235.7 165.7 237.5 163 Z " /><path fill="rgb(133,131,132)" stroke="rgb(133,131,132)" stroke-width="1" opacity="0.8431372549019608" d="M 220.5 166 Q 224 167.3 223 172 L 217 171.5 L 217.5 170 L 216 169.5 L 218 168.5 Q 217.3 170.8 219.5 170 L 221 167.5 L 220.5 166 Z " /><path fill="rgb(133,131,132)" stroke="rgb(133,131,132)" stroke-width="1" opacity="0.8431372549019608" d="M 233.5 166 L 237.5 169 L 238.5 166 L 241 166.5 L 238.5 170 Q 232.9 170.5 233.5 166 Z " /><path fill="rgb(133,131,132)" stroke="rgb(133,131,132)" stroke-width="1" opacity="0.8431372549019608" d="M 242.5 168 L 243 170.5 Q 240.9 174.9 235 174 Q 233.8 171 237.5 172 L 242.5 168 Z " /><path fill="rgb(133,131,132)" stroke="rgb(133,131,132)" stroke-width="1" opacity="0.8431372549019608" d="M 199.5 169 L 203 171.5 L 204 173.5 L 199 175 L 199.5 169 Z " /><path fill="rgb(133,131,132)" stroke="rgb(133,131,132)" stroke-width="1" opacity="0.8431372549019608" d="M 202.5 175 L 218.5 175 L 221 176.5 L 208.5 177 Q 207.3 174.8 202.5 176 L 202.5 175 Z " /><path fill="rgb(133,131,132)" stroke="rgb(133,131,132)" stroke-width="1" opacity="0.8431372549019608" d="M 222.5 178 L 223 180.5 L 220.5 181 L 204.5 181 L 203 179.5 L 221.5 179 L 222.5 178 Z " /><path fill="rgb(4,3,4)" stroke="rgb(4,3,4)" stroke-width="1" opacity="0.9098039215686274" d="M 127.5 47 L 129 47.5 L 118.5 53 L 113 54 Q 114.1 56.7 111.5 56 L 109.5 58 L 102 59 Q 101 55.2 103.5 54 Q 106.8 52.9 106 55.5 L 108 56.5 L 107 53.5 L 109 53 Q 107.8 56 111.5 55 L 114.5 52 L 118.5 52 L 127.5 47 Z M 103 55 L 103 57 L 105 58 Q 106 54 103 55 Z " /><path fill="rgb(4,3,4)" stroke="rgb(4,3,4)" stroke-width="1" opacity="0.9098039215686274" d="M 314.5 47 L 333 55 Q 334.1 52.3 331.5 53 L 331.5 52 L 335 53 L 335.5 56 L 336 54 L 339 54.5 L 337 55.5 Q 338.3 58.3 339.5 56 L 342.5 58 L 342.5 59 L 334.5 58 L 334.5 60 L 331 58.5 L 330.5 57 L 328 58.5 L 330 55.5 L 315.5 49 L 314.5 47 Z " /><path fill="rgb(4,3,4)" stroke="rgb(4,3,4)" stroke-width="1" opacity="0.9098039215686274" d="M 345.5 54 L 348 55.5 L 346.5 58 L 347 56.5 Q 347.8 54.3 345.5 55 L 345.5 54 Z " /><path fill="rgb(4,3,4)" stroke="rgb(4,3,4)" stroke-width="1" opacity="0.9098039215686274" d="M 95.5 55 L 97 57.5 L 95.5 58 Q 92.5 56.5 95.5 55 Z " /><path fill="rgb(4,3,4)" stroke="rgb(4,3,4)" stroke-width="1" opacity="0.9098039215686274" d="M 108.5 59 L 112 59.5 L 108.5 62 L 98 63 L 97 68.5 L 98 73.5 L 96 72.5 L 95 62 L 97.5 63 L 98 61 L 103.5 60 L 105.5 60 L 108.5 59 Z " /><path fill="rgb(4,3,4)" stroke="rgb(4,3,4)" stroke-width="1" opacity="0.9098039215686274" d="M 365.5 59 L 388 67.5 L 386.5 68 L 365.5 60 L 365.5 59 Z " /><path fill="rgb(4,3,4)" stroke="rgb(4,3,4)" stroke-width="1" opacity="0.9098039215686274" d="M 114.5 60 L 116 68.5 L 114 69.5 L 114 63 L 111.5 63 L 111.5 62 L 114.5 60 Z " /><path fill="rgb(4,3,4)" stroke="rgb(4,3,4)" stroke-width="1" opacity="0.9098039215686274" d="M 328.5 60 L 330.5 63 L 329 63.5 L 329 70 L 327 70 Q 325.5 63.1 328.5 60 Z " /><path fill="rgb(4,3,4)" stroke="rgb(4,3,4)" stroke-width="1" opacity="0.9098039215686274" d="M 336.5 60 L 340 60.5 L 336.5 61 L 336.5 60 Z " /><path fill="rgb(4,3,4)" stroke="rgb(4,3,4)" stroke-width="1" opacity="0.9098039215686274" d="M 348.5 60 L 353.5 68 Q 384.3 78.7 419 85.5 L 413.5 86 L 356.5 71 L 350 65.5 L 348.5 61 L 346 74 L 344 73.5 L 345 70.5 L 346 65.5 L 345 63.5 L 348.5 60 Z " /><path fill="rgb(4,3,4)" stroke="rgb(4,3,4)" stroke-width="1" opacity="0.9098039215686274" d="M 92.5 61 L 93 63.5 L 89.5 69 L 46.5 82 L 24.5 86 L 24.5 85 L 74.5 73 L 87.5 69 L 90 66.5 L 92.5 61 Z " /><path fill="rgb(4,3,4)" stroke="rgb(4,3,4)" stroke-width="1" opacity="0.9098039215686274" d="M 333 63 Q 336.8 62 338 64.5 L 333 65 L 333 63 Z " /><path fill="rgb(4,3,4)" stroke="rgb(4,3,4)" stroke-width="1" opacity="0.9098039215686274" d="M 389.5 68 L 403 73.5 L 401.5 74 L 389.5 69 L 389.5 68 Z " /><path fill="rgb(4,3,4)" stroke="rgb(4,3,4)" stroke-width="1" opacity="0.9098039215686274" d="M 404.5 74 L 418 80.5 L 416.5 80 L 404.5 75 L 404.5 74 Z " /><path fill="rgb(4,3,4)" stroke="rgb(4,3,4)" stroke-width="1" opacity="0.9098039215686274" d="M 190.5 104 L 194 105.5 L 192.5 106 Q 191.3 103.8 190 106.5 L 191 108.5 L 189.5 108 L 188 107.5 L 190.5 104 Z " /><path fill="rgb(4,3,4)" stroke="rgb(4,3,4)" stroke-width="1" opacity="0.9098039215686274" d="M 250.5 104 Q 253.8 102.9 253 105.5 L 253.5 107 L 250.5 105 L 249 105.5 L 250.5 104 Z " /><path fill="rgb(4,3,4)" stroke="rgb(4,3,4)" stroke-width="1" opacity="0.9098039215686274" d="M 251.5 108 L 253 113 L 249 111.5 L 251.5 108 Z " /><path fill="rgb(4,3,4)" stroke="rgb(4,3,4)" stroke-width="1" opacity="0.9098039215686274" d="M 435.5 108 L 434.5 110 L 404.5 125 L 405.5 123 L 435.5 108 Z " /><path fill="rgb(4,3,4)" stroke="rgb(4,3,4)" stroke-width="1" opacity="0.9098039215686274" d="M 7.5 109 L 8.5 111 L 7.5 109 Z " /><path fill="rgb(4,3,4)" stroke="rgb(4,3,4)" stroke-width="1" opacity="0.9098039215686274" d="M 191.5 110 L 192.5 112 Q 189.7 112.7 191.5 110 Z " /><path fill="rgb(4,3,4)" stroke="rgb(4,3,4)" stroke-width="1" opacity="0.9098039215686274" d="M 195.5 112 L 194.5 114 L 195.5 112 Z " /><path fill="rgb(4,3,4)" stroke="rgb(4,3,4)" stroke-width="1" opacity="0.9098039215686274" d="M 14.5 113 L 17 114.5 L 15.5 114 L 14.5 113 Z " /><path fill="rgb(4,3,4)" stroke="rgb(4,3,4)" stroke-width="1" opacity="0.9098039215686274" d="M 18.5 115 L 21 116.5 L 19.5 116 L 18.5 115 Z " /><path fill="rgb(4,3,4)" stroke="rgb(4,3,4)" stroke-width="1" opacity="0.9098039215686274" d="M 203.5 117 Q 209.6 116.3 212 118 L 211 123.5 L 211.5 125 L 209 125 L 209 118.5 L 207.5 118 L 205.5 118 Q 202.5 118.5 203.5 117 Z " /><path fill="rgb(4,3,4)" stroke="rgb(4,3,4)" stroke-width="1" opacity="0.9098039215686274" d="M 230.5 117 L 240 117 L 240 125 L 231.5 125 L 231 122.5 L 230 119 L 225 118.5 L 230.5 117 Z " /><path fill="rgb(4,3,4)" stroke="rgb(4,3,4)" stroke-width="1" opacity="0.9098039215686274" d="M 24.5 118 L 34 122.5 L 32.5 123 L 24.5 119 L 24.5 118 Z " /><path fill="rgb(4,3,4)" stroke="rgb(4,3,4)" stroke-width="1" opacity="0.9098039215686274" d="M 203 122 Q 206.7 120.5 206 123.5 Q 204.5 126.5 203 123.5 L 203 122 Z " /><path fill="rgb(4,3,4)" stroke="rgb(4,3,4)" stroke-width="1" opacity="0.9098039215686274" d="M 402.5 125 L 401.5 127 Q 398.6 129.6 392.5 129 L 392.5 128 L 402.5 125 Z " /><path fill="rgb(4,3,4)" stroke="rgb(4,3,4)" stroke-width="1" opacity="0.9098039215686274" d="M 208.5 127 L 209.5 129 Q 206.7 129.7 208.5 127 Z " /><path fill="rgb(4,3,4)" stroke="rgb(4,3,4)" stroke-width="1" opacity="0.9098039215686274" d="M 220.5 127 Q 223.5 128.5 220.5 130 L 220.5 127 Z " /><path fill="rgb(4,3,4)" stroke="rgb(4,3,4)" stroke-width="1" opacity="0.9098039215686274" d="M 224.5 127 Q 227.5 128.5 224.5 130 L 224.5 127 Z " /><path fill="rgb(4,3,4)" stroke="rgb(4,3,4)" stroke-width="1" opacity="0.9098039215686274" d="M 378.5 127 L 377 129.5 L 378.5 132 L 375 130.5 L 376 128 L 378.5 127 Z " /><path fill="rgb(4,3,4)" stroke="rgb(4,3,4)" stroke-width="1" opacity="0.9098039215686274" d="M 65.5 128 L 67 131 L 64.5 132 L 65.5 128 Z " /><path fill="rgb(4,3,4)" stroke="rgb(4,3,4)" stroke-width="1" opacity="0.9098039215686274" d="M 53.5 129 Q 55.8 128.3 55 130.5 Q 56.3 133.3 57.5 131 L 60 132.5 L 61.5 135 Q 64.5 134.2 63 138 L 59.5 139 L 59.5 137 L 52.5 137 L 52 135 L 50.5 135 L 49 135.5 L 51.5 134 Q 53.3 137.8 60.5 136 L 60.5 135 L 53.5 134 L 52 132.5 L 53.5 129 Z " /><path fill="rgb(4,3,4)" stroke="rgb(4,3,4)" stroke-width="1" opacity="0.9098039215686274" d="M 388.5 129 L 391 130.5 L 394 136.5 L 392.5 136 Q 390 140.5 381.5 139 L 380 135.5 L 381 135.5 Q 380.3 137.8 382.5 137 L 384 137.5 Q 384.7 134.9 382 136 L 382 133.5 L 385.5 131 L 387 131.5 L 388.5 129 Z M 388 134 L 389 136 L 391 135 L 388 134 Z " /><path fill="rgb(4,3,4)" stroke="rgb(4,3,4)" stroke-width="1" opacity="0.9098039215686274" d="M 248 136 L 256 140 L 255.5 142 L 250 139 Q 251.9 144.6 247 143 L 248 136 Z " /><path fill="rgb(4,3,4)" stroke="rgb(4,3,4)" stroke-width="1" opacity="0.9098039215686274" d="M 194.5 138 L 195 141.5 L 193 142.5 Q 192.3 138.8 194.5 138 Z " /><path fill="rgb(4,3,4)" stroke="rgb(4,3,4)" stroke-width="1" opacity="0.9098039215686274" d="M 55.5 139 Q 58.5 138.5 57 145.5 L 55 144.5 L 54 140.5 L 55.5 139 Z " /><path fill="rgb(4,3,4)" stroke="rgb(4,3,4)" stroke-width="1" opacity="0.9098039215686274" d="M 387.5 140 L 391 140.5 L 389 143.5 L 388 150.5 L 386 152.5 L 388 153.5 L 384.5 154 L 385 152.5 L 387 142.5 Q 384.8 141.3 387.5 140 Z " /><path fill="rgb(4,3,4)" stroke="rgb(4,3,4)" stroke-width="1" opacity="0.9098039215686274" d="M 63.5 142 L 65 144.5 L 63 143.5 L 63.5 142 Z " /><path fill="rgb(4,3,4)" stroke="rgb(4,3,4)" stroke-width="1" opacity="0.9098039215686274" d="M 204.5 142 L 207 150.5 L 205.5 150 L 203 148.5 Q 202.3 143.8 204.5 142 Z " /><path fill="rgb(4,3,4)" stroke="rgb(4,3,4)" stroke-width="1" opacity="0.9098039215686274" d="M 227.5 143 L 228 147 L 230 147.5 L 228.5 148 Q 225.8 146.8 227.5 143 Z " /><path fill="rgb(4,3,4)" stroke="rgb(4,3,4)" stroke-width="1" opacity="0.9098039215686274" d="M 374 145 L 376 145.5 L 374 146.5 L 374 145 Z " /><path fill="rgb(4,3,4)" stroke="rgb(4,3,4)" stroke-width="1" opacity="0.9098039215686274" d="M 224.5 146 L 225 149.5 L 224 149.5 L 224.5 146 Z " /><path fill="rgb(4,3,4)" stroke="rgb(4,3,4)" stroke-width="1" opacity="0.9098039215686274" d="M 72.5 147 L 78 149.5 L 75.5 150 L 72.5 147 Z " /><path fill="rgb(4,3,4)" stroke="rgb(4,3,4)" stroke-width="1" opacity="0.9098039215686274" d="M 376.5 147 L 378 152.5 L 375.5 153 L 375 150.5 L 376.5 147 Z " /><path fill="rgb(4,3,4)" stroke="rgb(4,3,4)" stroke-width="1" opacity="0.9098039215686274" d="M 56 148 L 58 148.5 L 56 149.5 L 56 148 Z " /><path fill="rgb(4,3,4)" stroke="rgb(4,3,4)" stroke-width="1" opacity="0.9098039215686274" d="M 66.5 148 L 69 149.5 L 67 150.5 L 70 151.5 L 66.5 153 L 66.5 148 Z " /><path fill="rgb(4,3,4)" stroke="rgb(4,3,4)" stroke-width="1" opacity="0.9098039215686274" d="M 368.5 148 L 370 148.5 L 350.5 156 L 329.5 160 L 329.5 159 Q 351.1 155.6 368.5 148 Z " /><path fill="rgb(4,3,4)" stroke="rgb(4,3,4)" stroke-width="1" opacity="0.9098039215686274" d="M 57.5 151 L 60 152.5 Q 60.9 155.5 56.5 154 L 56.5 153 L 58 152.5 L 57.5 151 Z " /><path fill="rgb(4,3,4)" stroke="rgb(4,3,4)" stroke-width="1" opacity="0.9098039215686274" d="M 88.5 153 L 112 158.5 L 107.5 159 L 90.5 155 L 88.5 153 Z " /><path fill="rgb(4,3,4)" stroke="rgb(4,3,4)" stroke-width="1" opacity="0.9098039215686274" d="M 375 156 Q 378 155 377 158 Q 374 159 375 156 Z " /><path fill="rgb(4,3,4)" stroke="rgb(4,3,4)" stroke-width="1" opacity="0.9098039215686274" d="M 247.5 158 L 248 161 L 250.5 160 L 253 161 L 253.5 163 L 254.5 161 L 255.5 163 L 256.5 161 L 257 165 L 254.5 164 L 252.5 164 L 247 165 L 246.5 168 L 246 165.5 L 248 163.5 L 247 160.5 L 247.5 158 Z " /><path fill="rgb(4,3,4)" stroke="rgb(4,3,4)" stroke-width="1" opacity="0.9098039215686274" d="M 187.5 161 L 188 163.5 L 186 164.5 L 187.5 161 Z " /><path fill="rgb(4,3,4)" stroke="rgb(4,3,4)" stroke-width="1" opacity="0.9098039215686274" d="M 189.5 162 L 194 164.5 L 191.5 165 L 189 164.5 L 189.5 162 Z " /><path fill="rgb(4,3,4)" stroke="rgb(4,3,4)" stroke-width="1" opacity="0.9098039215686274" d="M 245.5 173 L 246 174.5 L 241.5 181 L 242 179.5 L 245.5 173 Z " /><path fill="rgb(4,3,4)" stroke="rgb(4,3,4)" stroke-width="1" opacity="0.9098039215686274" d="M 232.5 175 L 232 176.5 L 233.5 179 L 235 179.5 L 232.5 181 Q 230.3 180.3 231 176.5 L 232.5 175 Z " /><path fill="rgb(4,3,4)" stroke="rgb(4,3,4)" stroke-width="1" opacity="0.9098039215686274" d="M 200.5 176 L 201 177.5 L 200 178.5 L 203.5 183 L 199 178.5 L 200 177.5 L 200.5 176 Z " /><path fill="rgb(4,3,4)" stroke="rgb(4,3,4)" stroke-width="1" opacity="0.9098039215686274" d="M 234.5 182 L 237 182.5 L 234.5 183 L 234.5 182 Z " /><path fill="rgb(52,49,47)" stroke="rgb(52,49,47)" stroke-width="1" opacity="0.10588235294117647" d="M 174.5 26 L 173.5 28 L 126.5 46 L 111.5 50 L 109.5 50 L 96.5 54 L 97.5 52 L 105.5 49 L 119.5 47 L 128.5 44 L 174.5 26 Z " /><path fill="rgb(52,49,47)" stroke="rgb(52,49,47)" stroke-width="1" opacity="0.10588235294117647" d="M 267.5 26 L 316.5 45 L 339.5 50 L 346.5 53 L 349.5 56 Q 361 54.5 367 58.5 L 365.5 58 L 349.5 57 L 346.5 54 L 331.5 49 L 329.5 49 L 324.5 49 L 307.5 43 L 297.5 38 L 268.5 28 L 267.5 26 Z " /><path fill="rgb(52,49,47)" stroke="rgb(52,49,47)" stroke-width="1" opacity="0.10588235294117647" d="M 265.5 31 L 304.5 44 L 323 52.5 L 321.5 53 L 314.5 49 L 267.5 33 L 265.5 31 Z " /><path fill="rgb(52,49,47)" stroke="rgb(52,49,47)" stroke-width="1" opacity="0.10588235294117647" d="M 173.5 32 L 176 32.5 L 128.5 49 L 115 55 L 117 63.5 L 115 64 Q 116.2 58 113 55.5 L 132.5 46 L 173.5 32 Z " /><path fill="rgb(52,49,47)" stroke="rgb(52,49,47)" stroke-width="1" opacity="0.10588235294117647" d="M 194.5 43 L 193.5 45 L 194.5 43 Z " /><path fill="rgb(52,49,47)" stroke="rgb(52,49,47)" stroke-width="1" opacity="0.10588235294117647" d="M 324.5 53 L 329 54 L 326.5 61 L 327 59.5 L 328 55 Q 323.8 55 324.5 53 Z " /><path fill="rgb(52,49,47)" stroke="rgb(52,49,47)" stroke-width="1" opacity="0.10588235294117647" d="M 94.5 54 L 92.5 57 L 85.5 57 L 75.5 59 L 75.5 58 Q 81.3 54.8 91.5 56 L 94.5 54 Z " /><path fill="rgb(52,49,47)" stroke="rgb(52,49,47)" stroke-width="1" opacity="0.10588235294117647" d="M 72.5 59 L 74 59.5 L 62.5 64 L 62.5 63 L 72.5 59 Z " /><path fill="rgb(52,49,47)" stroke="rgb(52,49,47)" stroke-width="1" opacity="0.10588235294117647" d="M 190.5 59 L 191 61.5 L 190 61.5 L 190.5 59 Z " /><path fill="rgb(52,49,47)" stroke="rgb(52,49,47)" stroke-width="1" opacity="0.10588235294117647" d="M 371.5 60 L 375 61.5 L 373.5 62 L 371.5 60 Z " /><path fill="rgb(52,49,47)" stroke="rgb(52,49,47)" stroke-width="1" opacity="0.10588235294117647" d="M 93 62 L 95 62.5 L 93 63.5 L 93 62 Z " /><path fill="rgb(52,49,47)" stroke="rgb(52,49,47)" stroke-width="1" opacity="0.10588235294117647" d="M 59.5 64 L 61 64.5 L 31.5 76 L 13 85.5 Q 14 89 19.5 88 L 25.5 86 L 24.5 88 L 15.5 89 L 12 86.5 L 13.5 84 L 33.5 74 L 59.5 64 Z " /><path fill="rgb(52,49,47)" stroke="rgb(52,49,47)" stroke-width="1" opacity="0.10588235294117647" d="M 116.5 65 L 118 75 L 121 75.5 L 118.5 76 Q 114.7 72.1 116.5 65 Z " /><path fill="rgb(52,49,47)" stroke="rgb(52,49,47)" stroke-width="1" opacity="0.10588235294117647" d="M 389.5 67 L 393 68.5 L 391.5 69 L 389.5 67 Z " /><path fill="rgb(52,49,47)" stroke="rgb(52,49,47)" stroke-width="1" opacity="0.10588235294117647" d="M 325.5 68 Q 328.3 69.2 326 70.5 Q 326.8 75.3 323.5 76 L 321 75.5 L 325 73.5 L 325.5 68 Z " /><path fill="rgb(52,49,47)" stroke="rgb(52,49,47)" stroke-width="1" opacity="0.10588235294117647" d="M 95.5 72 Q 97.8 73.8 97 78.5 L 101 85.5 L 100 85.5 L 96 78.5 L 95.5 72 Z " /><path fill="rgb(52,49,47)" stroke="rgb(52,49,47)" stroke-width="1" opacity="0.10588235294117647" d="M 346 72 L 348 72.5 L 341.5 89 L 341 85.5 L 345 79.5 L 346 72 Z " /><path fill="rgb(52,49,47)" stroke="rgb(52,49,47)" stroke-width="1" opacity="0.10588235294117647" d="M 409.5 75 L 413 76.5 L 411.5 77 L 409.5 75 Z " /><path fill="rgb(52,49,47)" stroke="rgb(52,49,47)" stroke-width="1" opacity="0.10588235294117647" d="M 125.5 76 L 128 76.5 L 125.5 77 L 125.5 76 Z " /><path fill="rgb(52,49,47)" stroke="rgb(52,49,47)" stroke-width="1" opacity="0.10588235294117647" d="M 315.5 76 L 318 76.5 L 315.5 77 L 315.5 76 Z " /><path fill="rgb(52,49,47)" stroke="rgb(52,49,47)" stroke-width="1" opacity="0.10588235294117647" d="M 133.5 77 L 136 77.5 L 133.5 78 L 133.5 77 Z " /><path fill="rgb(52,49,47)" stroke="rgb(52,49,47)" stroke-width="1" opacity="0.10588235294117647" d="M 416.5 78 L 430 84 L 428.5 88 L 422.5 89 L 416 86.5 L 417.5 86 Q 420.4 88.6 426.5 88 Q 431 86 427.5 84 L 416.5 79 L 416.5 78 Z " /><path fill="rgb(52,49,47)" stroke="rgb(52,49,47)" stroke-width="1" opacity="0.10588235294117647" d="M 112 85 L 114 85.5 L 112.5 94 L 112 85 Z " /><path fill="rgb(52,49,47)" stroke="rgb(52,49,47)" stroke-width="1" opacity="0.10588235294117647" d="M 327.5 85 L 331 86.5 L 330.5 104 L 330 86 Q 326.7 86.8 327.5 85 Z " /><path fill="rgb(52,49,47)" stroke="rgb(52,49,47)" stroke-width="1" opacity="0.10588235294117647" d="M 117.5 86 L 120 86.5 L 117.5 87 L 117.5 86 Z " /><path fill="rgb(52,49,47)" stroke="rgb(52,49,47)" stroke-width="1" opacity="0.10588235294117647" d="M 322.5 86 L 326 86.5 L 322.5 87 L 322.5 86 Z " /><path fill="rgb(52,49,47)" stroke="rgb(52,49,47)" stroke-width="1" opacity="0.10588235294117647" d="M 122.5 87 L 125 87.5 L 122.5 88 L 122.5 87 Z " /><path fill="rgb(52,49,47)" stroke="rgb(52,49,47)" stroke-width="1" opacity="0.10588235294117647" d="M 317.5 87 L 321 87.5 L 317.5 88 L 317.5 87 Z " /><path fill="rgb(52,49,47)" stroke="rgb(52,49,47)" stroke-width="1" opacity="0.10588235294117647" d="M 101.5 88 L 102 90.5 L 101 90.5 L 101.5 88 Z " /><path fill="rgb(52,49,47)" stroke="rgb(52,49,47)" stroke-width="1" opacity="0.10588235294117647" d="M 127.5 88 L 130 88.5 L 127.5 89 L 127.5 88 Z " /><path fill="rgb(52,49,47)" stroke="rgb(52,49,47)" stroke-width="1" opacity="0.10588235294117647" d="M 311.5 88 L 315 88.5 L 305.5 90 L 305.5 89 Q 310.2 90.3 311.5 88 Z " /><path fill="rgb(52,49,47)" stroke="rgb(52,49,47)" stroke-width="1" opacity="0.10588235294117647" d="M 131.5 89 L 137 89.5 L 131.5 90 L 131.5 89 Z " /><path fill="rgb(52,49,47)" stroke="rgb(52,49,47)" stroke-width="1" opacity="0.10588235294117647" d="M 139.5 90 L 142 90.5 L 139.5 91 L 139.5 90 Z " /><path fill="rgb(52,49,47)" stroke="rgb(52,49,47)" stroke-width="1" opacity="0.10588235294117647" d="M 299.5 90 L 304 90.5 L 299.5 91 L 299.5 90 Z " /><path fill="rgb(52,49,47)" stroke="rgb(52,49,47)" stroke-width="1" opacity="0.10588235294117647" d="M 340.5 90 L 341 93.5 L 340 93.5 L 340.5 90 Z " /><path fill="rgb(52,49,47)" stroke="rgb(52,49,47)" stroke-width="1" opacity="0.10588235294117647" d="M 145.5 91 L 148 91.5 L 145.5 92 L 145.5 91 Z " /><path fill="rgb(52,49,47)" stroke="rgb(52,49,47)" stroke-width="1" opacity="0.10588235294117647" d="M 294.5 91 L 298 91.5 L 294.5 92 L 294.5 91 Z " /><path fill="rgb(52,49,47)" stroke="rgb(52,49,47)" stroke-width="1" opacity="0.10588235294117647" d="M 151.5 92 L 154 92.5 L 151.5 93 L 151.5 92 Z " /><path fill="rgb(52,49,47)" stroke="rgb(52,49,47)" stroke-width="1" opacity="0.10588235294117647" d="M 288.5 92 L 292 92.5 L 288.5 93 L 288.5 92 Z " /><path fill="rgb(52,49,47)" stroke="rgb(52,49,47)" stroke-width="1" opacity="0.10588235294117647" d="M 156.5 93 L 160 93.5 L 156.5 94 L 156.5 93 Z " /><path fill="rgb(52,49,47)" stroke="rgb(52,49,47)" stroke-width="1" opacity="0.10588235294117647" d="M 282.5 93 L 287 93.5 L 282.5 94 L 282.5 93 Z " /><path fill="rgb(52,49,47)" stroke="rgb(52,49,47)" stroke-width="1" opacity="0.10588235294117647" d="M 162.5 94 L 166 94.5 L 162.5 95 L 162.5 94 Z " /><path fill="rgb(52,49,47)" stroke="rgb(52,49,47)" stroke-width="1" opacity="0.10588235294117647" d="M 276.5 94 L 280 94.5 L 276.5 95 L 276.5 94 Z " /><path fill="rgb(52,49,47)" stroke="rgb(52,49,47)" stroke-width="1" opacity="0.10588235294117647" d="M 168.5 95 L 172 95.5 L 168.5 96 L 168.5 95 Z " /><path fill="rgb(52,49,47)" stroke="rgb(52,49,47)" stroke-width="1" opacity="0.10588235294117647" d="M 271.5 95 L 274 95.5 L 271.5 96 L 271.5 95 Z " /><path fill="rgb(52,49,47)" stroke="rgb(52,49,47)" stroke-width="1" opacity="0.10588235294117647" d="M 339.5 95 L 340 98.5 L 339 98.5 L 339.5 95 Z " /><path fill="rgb(52,49,47)" stroke="rgb(52,49,47)" stroke-width="1" opacity="0.10588235294117647" d="M 173.5 96 L 177 96.5 L 173.5 97 L 173.5 96 Z " /><path fill="rgb(52,49,47)" stroke="rgb(52,49,47)" stroke-width="1" opacity="0.10588235294117647" d="M 265.5 96 L 269 96.5 L 265.5 97 L 265.5 96 Z " /><path fill="rgb(52,49,47)" stroke="rgb(52,49,47)" stroke-width="1" opacity="0.10588235294117647" d="M 179.5 97 L 183 97.5 L 179.5 98 L 179.5 97 Z " /><path fill="rgb(52,49,47)" stroke="rgb(52,49,47)" stroke-width="1" opacity="0.10588235294117647" d="M 259 97 L 263 97.5 L 260 98 L 262 104.5 L 261 104.5 L 259 97 Z " /><path fill="rgb(52,49,47)" stroke="rgb(52,49,47)" stroke-width="1" opacity="0.10588235294117647" d="M 111.5 100 L 112 104.5 Q 111.3 107.8 106.5 107 L 106.5 106 Q 110.3 106.8 111 104.5 L 111.5 100 Z " /><path fill="rgb(52,49,47)" stroke="rgb(52,49,47)" stroke-width="1" opacity="0.10588235294117647" d="M 182.5 100 L 182 101.5 L 180.5 106 L 180 103.5 L 182.5 100 Z " /><path fill="rgb(52,49,47)" stroke="rgb(52,49,47)" stroke-width="1" opacity="0.10588235294117647" d="M 338.5 101 L 339 103.5 L 338 103.5 L 338.5 101 Z " /><path fill="rgb(52,49,47)" stroke="rgb(52,49,47)" stroke-width="1" opacity="0.10588235294117647" d="M 434.5 101 L 440 102.5 L 437.5 103 L 434.5 102 L 434.5 101 Z " /><path fill="rgb(52,49,47)" stroke="rgb(52,49,47)" stroke-width="1" opacity="0.10588235294117647" d="M 2.5 102 L 4 102.5 L 1 104.5 L 3.5 108 L 34.5 124 L 52 130.5 L 51 134 Q 48.3 132.9 49 135.5 L 47.5 142 L 47 135.5 L 50 131.5 L 9.5 113 L 0 105.5 L 2.5 102 Z " /><path fill="rgb(52,49,47)" stroke="rgb(52,49,47)" stroke-width="1" opacity="0.10588235294117647" d="M 9.5 102 L 15 104.5 L 13.5 105 L 9.5 103 L 9.5 102 Z " /><path fill="rgb(52,49,47)" stroke="rgb(52,49,47)" stroke-width="1" opacity="0.10588235294117647" d="M 431.5 102 L 433 102.5 L 399.5 116 L 377.5 127 L 372.5 131 L 366.5 131 L 361 129.5 L 374.5 129 L 390.5 119 L 431.5 102 Z " /><path fill="rgb(52,49,47)" stroke="rgb(52,49,47)" stroke-width="1" opacity="0.10588235294117647" d="M 16.5 105 L 53.5 120 L 67.5 129 L 82.5 129 L 99.5 138 L 104 138.5 L 99.5 139 L 81.5 130 L 67.5 130 L 64.5 127 L 42.5 116 L 20.5 108 L 16.5 106 L 16.5 105 Z " /><path fill="rgb(52,49,47)" stroke="rgb(52,49,47)" stroke-width="1" opacity="0.10588235294117647" d="M 337.5 105 L 336.5 107 L 333 106.5 L 337.5 105 Z " /><path fill="rgb(52,49,47)" stroke="rgb(52,49,47)" stroke-width="1" opacity="0.10588235294117647" d="M 262.5 106 L 264 108.5 L 262 107.5 L 262.5 106 Z " /><path fill="rgb(52,49,47)" stroke="rgb(52,49,47)" stroke-width="1" opacity="0.10588235294117647" d="M 439.5 106 L 436.5 110 L 434.5 111 L 436.5 108 L 439.5 106 Z " /><path fill="rgb(52,49,47)" stroke="rgb(52,49,47)" stroke-width="1" opacity="0.10588235294117647" d="M 428.5 113 L 427.5 115 L 424.5 116 L 424.5 115 L 428.5 113 Z " /><path fill="rgb(52,49,47)" stroke="rgb(52,49,47)" stroke-width="1" opacity="0.10588235294117647" d="M 422.5 116 L 421.5 118 L 422.5 116 Z " /><path fill="rgb(52,49,47)" stroke="rgb(52,49,47)" stroke-width="1" opacity="0.10588235294117647" d="M 418.5 118 L 420 118.5 L 416.5 120 L 416.5 119 L 418.5 118 Z " /><path fill="rgb(52,49,47)" stroke="rgb(52,49,47)" stroke-width="1" opacity="0.10588235294117647" d="M 184.5 122 L 187.5 127 L 194 131.5 Q 195 136 192.5 137 L 186 141.5 L 184 148.5 L 184 158.5 L 186.5 165 L 188.5 165 L 190.5 164 L 195 165 L 195 171.5 L 200 181 L 206.5 184 L 236.5 184 L 244 178.5 L 246 175.5 L 247 166.5 L 248.5 165 L 250 165.5 L 248 166 Q 248.7 178.9 240.5 184 L 237.5 185 L 205.5 185 L 199 180.5 L 194 172.5 L 194 166 L 187.5 165 L 185 166 Q 181.4 160 183 147.5 L 186.5 139 L 193 136 Q 193.8 131 190.5 129 L 185 125.5 Q 185.9 122.5 181.5 124 L 173.5 127 L 173.5 126 L 184.5 122 Z " /><path fill="rgb(52,49,47)" stroke="rgb(52,49,47)" stroke-width="1" opacity="0.10588235294117647" d="M 257 122 L 267 125.5 L 265.5 126 L 258.5 123 L 253.5 129 L 250 131.5 L 248.5 136 L 248 133.5 L 253.5 127 L 256 125.5 L 257 122 Z " /><path fill="rgb(52,49,47)" stroke="rgb(52,49,47)" stroke-width="1" opacity="0.10588235294117647" d="M 406.5 124 L 405.5 126 L 400.5 128 L 400.5 127 L 406.5 124 Z " /><path fill="rgb(52,49,47)" stroke="rgb(52,49,47)" stroke-width="1" opacity="0.10588235294117647" d="M 268.5 126 L 273 127.5 L 270.5 128 L 268.5 126 Z " /><path fill="rgb(52,49,47)" stroke="rgb(52,49,47)" stroke-width="1" opacity="0.10588235294117647" d="M 164.5 129 L 166 129.5 L 161.5 132 L 152.5 134 L 152.5 133 L 161.5 131 L 164.5 129 Z " /><path fill="rgb(52,49,47)" stroke="rgb(52,49,47)" stroke-width="1" opacity="0.10588235294117647" d="M 277.5 129 L 284 131.5 L 280.5 132 L 277.5 129 Z " /><path fill="rgb(52,49,47)" stroke="rgb(52,49,47)" stroke-width="1" opacity="0.10588235294117647" d="M 358.5 130 L 360 130.5 L 341.5 140 L 339 138.5 L 340.5 138 L 342.5 138 L 358.5 130 Z " /><path fill="rgb(52,49,47)" stroke="rgb(52,49,47)" stroke-width="1" opacity="0.10588235294117647" d="M 391.5 130 L 396 137.5 L 394.5 145 L 394 135.5 Q 389.8 134.3 391.5 130 Z " /><path fill="rgb(52,49,47)" stroke="rgb(52,49,47)" stroke-width="1" opacity="0.10588235294117647" d="M 250.5 136 L 251.5 138 L 250.5 136 Z " /><path fill="rgb(52,49,47)" stroke="rgb(52,49,47)" stroke-width="1" opacity="0.10588235294117647" d="M 300.5 137 L 305 138.5 L 303.5 139 L 300.5 138 L 300.5 137 Z " /><path fill="rgb(52,49,47)" stroke="rgb(52,49,47)" stroke-width="1" opacity="0.10588235294117647" d="M 255.5 139 L 258 141.5 L 259 145.5 L 259 161.5 L 257.5 164 L 257 162.5 L 258 161.5 L 258 147.5 L 255.5 139 Z " /><path fill="rgb(52,49,47)" stroke="rgb(52,49,47)" stroke-width="1" opacity="0.10588235294117647" d="M 306.5 139 L 309 139.5 L 306.5 140 L 306.5 139 Z " /><path fill="rgb(52,49,47)" stroke="rgb(52,49,47)" stroke-width="1" opacity="0.10588235294117647" d="M 310.5 140 L 329 146.5 L 317 156.5 Q 315.9 159.8 318.5 159 Q 321.1 162.4 328.5 161 L 330.5 160 L 330.5 161 L 321.5 162 L 316 158.5 L 316 156.5 L 323.5 149 L 327 146.5 L 312.5 142 L 310.5 140 Z " /><path fill="rgb(52,49,47)" stroke="rgb(52,49,47)" stroke-width="1" opacity="0.10588235294117647" d="M 118.5 144 L 121 144.5 L 116 146.5 L 120 149.5 L 118.5 149 L 114 146.5 L 118.5 144 Z " /><path fill="rgb(52,49,47)" stroke="rgb(52,49,47)" stroke-width="1" opacity="0.10588235294117647" d="M 393.5 146 L 394 149.5 L 393 150.5 L 393 159.5 L 389.5 163 L 383.5 164 L 382 165.5 L 378.5 175 L 378 172.5 L 383.5 163 Q 390.1 163.6 392 159.5 Q 390.9 150.9 393.5 146 Z " /><path fill="rgb(52,49,47)" stroke="rgb(52,49,47)" stroke-width="1" opacity="0.10588235294117647" d="M 121.5 150 L 128 156.5 L 128 159 L 121.5 162 L 115.5 162 L 103 158.5 L 105.5 158 L 115.5 161 L 121.5 161 L 127 157.5 L 121.5 150 Z " /><path fill="rgb(52,49,47)" stroke="rgb(52,49,47)" stroke-width="1" opacity="0.10588235294117647" d="M 86.5 154 L 89 154.5 L 80.5 158 L 76 162.5 L 75.5 171 L 75 162.5 L 77 159 L 86.5 154 Z " /><path fill="rgb(52,49,47)" stroke="rgb(52,49,47)" stroke-width="1" opacity="0.10588235294117647" d="M 355.5 154 Q 362.8 156.2 367 161.5 L 366.5 175 L 366 162.5 L 361.5 158 L 354 155.5 L 355.5 154 Z " /><path fill="rgb(52,49,47)" stroke="rgb(52,49,47)" stroke-width="1" opacity="0.10588235294117647" d="M 50.5 160 L 55 162.5 L 53.5 163 L 50.5 160 Z " /><path fill="rgb(52,49,47)" stroke="rgb(52,49,47)" stroke-width="1" opacity="0.10588235294117647" d="M 56.5 163 L 61 164 L 63 170.5 L 62 170.5 Q 61.8 165.8 58.5 164 Q 55.5 164.5 56.5 163 Z " /><path fill="rgb(52,49,47)" stroke="rgb(52,49,47)" stroke-width="1" opacity="0.10588235294117647" d="M 252.5 164 L 256 165.5 L 253.5 166 L 252.5 164 Z " /><path fill="rgb(52,49,47)" stroke="rgb(52,49,47)" stroke-width="1" opacity="0.10588235294117647" d="M 76.5 172 L 78 186.5 L 77 186.5 L 76.5 172 Z " /><path fill="rgb(52,49,47)" stroke="rgb(52,49,47)" stroke-width="1" opacity="0.10588235294117647" d="M 203 176 L 208.5 177 L 223 177.5 L 221.5 179 L 203 179 L 203 176 Z " /><path fill="rgb(52,49,47)" stroke="rgb(52,49,47)" stroke-width="1" opacity="0.10588235294117647" d="M 232.5 176 L 239.5 176 L 240 177.5 Q 239 180 234.5 179 L 232.5 176 Z " /><path fill="rgb(52,49,47)" stroke="rgb(52,49,47)" stroke-width="1" opacity="0.10588235294117647" d="M 377.5 176 L 378 177.5 L 375.5 183 L 375 181.5 L 377.5 176 Z " /><path fill="rgb(52,49,47)" stroke="rgb(52,49,47)" stroke-width="1" opacity="0.10588235294117647" d="M 365.5 178 L 366 182.5 L 365 182.5 L 365.5 178 Z " /><path fill="rgb(52,49,47)" stroke="rgb(52,49,47)" stroke-width="1" opacity="0.10588235294117647" d="M 374.5 184 L 375 186.5 L 372.5 192 L 372 190.5 L 374.5 184 Z " /><path fill="rgb(52,49,47)" stroke="rgb(52,49,47)" stroke-width="1" opacity="0.10588235294117647" d="M 364.5 186 L 366 194.5 L 364 193.5 L 364.5 186 Z " /><path fill="rgb(52,49,47)" stroke="rgb(52,49,47)" stroke-width="1" opacity="0.10588235294117647" d="M 77.5 193 L 78 195 L 76 194.5 L 77.5 193 Z " /><path fill="rgb(52,49,47)" stroke="rgb(52,49,47)" stroke-width="1" opacity="0.10588235294117647" d="M 371.5 193 L 370.5 195 L 371.5 193 Z " /><path fill="rgb(184,186,187)" stroke="rgb(184,186,187)" stroke-width="1" opacity="0.984313725490196" d="M 212.5 22 L 230.5 22 L 237 25.5 L 234 30.5 L 234 32.5 L 234 44.5 L 232.5 51 L 230.5 50 Q 226.2 53.7 216.5 52 L 211 49.5 L 212 48.5 L 209 45.5 L 209 30.5 L 206 25.5 L 212.5 22 Z " /><path fill="rgb(184,186,187)" stroke="rgb(184,186,187)" stroke-width="1" opacity="0.984313725490196" d="M 179.5 25 L 182.5 26 L 184.5 25 L 183.5 29 L 179.5 29 L 177 28.5 L 180 26.5 L 179.5 25 Z " /><path fill="rgb(184,186,187)" stroke="rgb(184,186,187)" stroke-width="1" opacity="0.984313725490196" d="M 258.5 25 L 265 27 Q 266.3 30 262.5 29 L 260 28.5 Q 260.7 25.9 258 27 L 258.5 25 Z " /><path fill="rgb(184,186,187)" stroke="rgb(184,186,187)" stroke-width="1" opacity="0.984313725490196" d="M 197.5 42 Q 202.9 41.4 205 43 L 204 51 L 207 51 L 207 58.5 L 208 58.5 Q 206.8 52.4 209.5 53 L 210.5 54 L 221.5 54 Q 223 51.5 228.5 53 L 231.5 54 L 234 53 L 234.5 57 L 235 51 L 239 51 L 239 49.5 Q 236.4 48.1 237 43.5 Q 238.8 40.3 245.5 42 L 247 45.5 L 246.5 47 L 244.5 46 L 240 47 L 239 51.5 Q 241.9 55.1 241 62.5 L 245.5 68 L 254 74.5 L 257 80.5 L 256 83.5 L 257 86 Q 254.3 84.9 255 87.5 Q 257.3 88.8 256 93.5 L 255 95.5 L 256 97.5 L 254 101.5 L 255 104.5 L 254 104.5 L 251.5 101 Q 245.8 100.3 245 104.5 L 244 110.5 L 246 113.5 L 243.5 112 L 239.5 110 L 203.5 110 L 197.5 113 L 198 111.5 Q 199.3 103.2 194.5 101 L 188.5 102 L 189 100.5 L 186 93.5 L 186 89.5 L 186 87.5 L 185 82.5 L 186 78.5 L 192.5 70 L 199 65.5 L 198.5 64 L 201 64 L 201 58.5 L 202 55.5 L 202 51.5 L 203 48.5 L 197.5 46 L 195.5 47 L 196 45.5 L 195 43.5 L 197.5 42 Z M 217 64 L 217 66 L 222 65 L 225 66 L 226 66 L 225 64 L 217 64 Z M 218 68 Q 215 69 216 73 L 226 73 L 226 68 Q 223 67 224 70 L 218 70 L 218 68 Z M 195 72 L 196 74 L 199 73 L 195 72 Z M 245 72 L 246 74 L 249 73 L 245 72 Z " /><path fill="rgb(184,186,187)" stroke="rgb(184,186,187)" stroke-width="1" opacity="0.984313725490196" d="M 241.5 54 L 242.5 56 L 241.5 54 Z " /><path fill="rgb(184,186,187)" stroke="rgb(184,186,187)" stroke-width="1" opacity="0.984313725490196" d="M 246.5 57 L 249 58.5 L 247.5 58 L 246.5 57 Z " /><path fill="rgb(184,186,187)" stroke="rgb(184,186,187)" stroke-width="1" opacity="0.984313725490196" d="M 100 66 Q 104 64.6 102 71.5 L 102.5 73 Q 99.5 73.9 101 69.5 L 100 66 Z " /><path fill="rgb(184,186,187)" stroke="rgb(184,186,187)" stroke-width="1" opacity="0.984313725490196" d="M 104.5 74 L 110 74.5 Q 106.5 76 109 77.5 L 109 79 L 104 79 Q 105 76 102 77 L 101.5 79 L 100 76.5 L 105 75.5 L 104.5 74 Z " /><path fill="rgb(184,186,187)" stroke="rgb(184,186,187)" stroke-width="1" opacity="0.984313725490196" d="M 333.5 74 Q 339.4 71.9 338 76.5 L 333.5 79 L 334 77.5 L 333.5 74 Z " /><path fill="rgb(184,186,187)" stroke="rgb(184,186,187)" stroke-width="1" opacity="0.984313725490196" d="M 104 87 Q 106.7 85.9 106 88.5 L 108 88.5 L 108 96.5 L 109 97.5 L 108 99.5 L 109 102 Q 103.8 103.8 106 96.5 L 104 90.5 L 104 88.5 L 104 87 Z " /><path fill="rgb(184,186,187)" stroke="rgb(184,186,187)" stroke-width="1" opacity="0.984313725490196" d="M 335.5 88 Q 338.9 87.1 337 92.5 L 337 94.5 L 336 104 L 333 103.5 L 335 103 L 335 95.5 L 336 94.5 L 335 91.5 L 336 89.5 L 335.5 88 Z " /><path fill="rgb(184,186,187)" stroke="rgb(184,186,187)" stroke-width="1" opacity="0.984313725490196" d="M 5.5 104 L 10 104.5 L 5.5 107 L 5.5 104 Z " /><path fill="rgb(184,186,187)" stroke="rgb(184,186,187)" stroke-width="1" opacity="0.984313725490196" d="M 177.5 113 L 178 115 L 180 115.5 L 175 118 L 171.5 124 L 167.5 126 Q 166 123.5 164.5 127 L 156.5 130 L 152.5 130 L 144.5 134 L 142.5 134 L 140.5 135 L 137.5 133 L 135.5 137 L 133.5 136 L 129.5 138 L 129.5 136 L 126.5 135 Q 125 138.5 123.5 136 L 120.5 138 Q 111.2 138.2 105.5 142 L 104.5 140 L 107.5 140 L 117.5 135 L 162 119.5 L 161.5 118 L 164.5 119 L 164.5 117 L 166.5 118 L 166.5 116 L 169.5 117 L 177.5 113 Z " /><path fill="rgb(184,186,187)" stroke="rgb(184,186,187)" stroke-width="1" opacity="0.984313725490196" d="M 263 113 L 338 140 Q 339.1 142.7 336.5 142 L 311.5 133 Q 310 135.5 308.5 132 L 305 132.5 L 308 133 L 308 137 L 306.5 137 L 304 136 L 305 133.5 L 304.5 131 L 302 131.5 L 303 133.5 L 300.5 135 L 295 133 L 294.5 131 L 291.5 132 L 287.5 130 Q 284.2 131.1 285 128.5 L 283 127.5 L 282.5 129 L 282 123 Q 278.6 122.3 277.5 125 L 278 123.5 Q 278.9 120.1 273.5 122 L 272 122.5 L 273 120.5 L 263 115.5 L 263 113 Z M 285 124 Q 283 127 286 126 L 285 124 Z M 288 125 L 288 128 Q 291 127 288 125 Z M 291 126 L 290 128 L 292 127 L 291 126 Z M 292 127 L 292 129 L 295 129 L 292 127 Z M 298 129 L 299 130 L 300 132 L 302 131 L 298 129 Z " /><path fill="rgb(184,186,187)" stroke="rgb(184,186,187)" stroke-width="1" opacity="0.984313725490196" d="M 229.5 140 L 232 141.5 Q 232.8 143.8 230.5 143 L 228 142.5 L 229.5 140 Z " /><path fill="rgb(184,186,187)" stroke="rgb(184,186,187)" stroke-width="1" opacity="0.984313725490196" d="M 207.5 141 L 209 141.5 L 208 146 Q 204.7 147.3 206 142.5 L 207.5 141 Z " /><path fill="rgb(184,186,187)" stroke="rgb(184,186,187)" stroke-width="1" opacity="0.984313725490196" d="M 211.5 141 L 213 144.5 L 211 143.5 L 211.5 141 Z " /><path fill="rgb(184,186,187)" stroke="rgb(184,186,187)" stroke-width="1" opacity="0.984313725490196" d="M 49.5 142 L 53 143.5 L 54 151 L 50 150 L 48 143.5 L 49.5 142 Z " /><path fill="rgb(184,186,187)" stroke="rgb(184,186,187)" stroke-width="1" opacity="0.984313725490196" d="M 119 152 L 125 156.5 L 121.5 159 L 122 157.5 L 120.5 155 L 117.5 156 L 119 153.5 L 119 152 Z " /><path fill="rgb(184,186,187)" stroke="rgb(184,186,187)" stroke-width="1" opacity="0.984313725490196" d="M 323.5 152 L 324 154 L 320 156.5 L 319.5 158 L 319 156.5 L 323.5 152 Z " /><path fill="rgb(184,186,187)" stroke="rgb(184,186,187)" stroke-width="1" opacity="0.984313725490196" d="M 53.5 154 L 52.5 156 L 53.5 154 Z " /><path fill="rgb(184,186,187)" stroke="rgb(184,186,187)" stroke-width="1" opacity="0.984313725490196" d="M 52.5 158 L 53.5 160 Q 50.7 160.7 52.5 158 Z " /><path fill="rgb(184,186,187)" stroke="rgb(184,186,187)" stroke-width="1" opacity="0.984313725490196" d="M 210.5 160 Q 214.9 158.5 214 161.5 L 214.5 163 Q 209.8 163.5 210.5 160 Z " /><path fill="rgb(184,186,187)" stroke="rgb(184,186,187)" stroke-width="1" opacity="0.984313725490196" d="M 238.5 165 L 238 166.5 Q 238.8 169.1 235.5 168 L 235.5 167 L 238.5 165 Z " /><path fill="rgb(184,186,187)" stroke="rgb(184,186,187)" stroke-width="1" opacity="0.984313725490196" d="M 219.5 167 L 218.5 169 L 219.5 167 Z " /><path fill="rgb(0,0,0)" stroke="rgb(0,0,0)" stroke-width="1" opacity="0" d="M 0 0 L 439.5 0 L 440 0.5 L 440 102 L 434.5 101 L 390.5 119 L 374.5 129 L 361.5 129 L 341.5 139 L 292.5 121 L 272.5 115 L 264 109.5 L 260 98 L 330 86 L 330 103.5 L 331 106 L 336.5 107 L 339 103.5 L 342 85.5 L 347 77.5 L 348 72.5 Q 345.5 71 347 65.5 L 348.5 63 L 354.5 70 L 384.5 79 L 412.5 85 L 418.5 88 L 426.5 89 L 430 86.5 Q 431.1 83.2 428.5 84 L 417.5 78 L 397.5 70 Q 396 72.5 394.5 69 L 379.5 63 Q 378 65.5 376.5 62 L 367.5 59 L 365.5 57 L 349.5 56 L 346.5 53 L 339.5 50 L 333.5 48 L 322.5 47 L 257.5 23 L 255 24 L 256.5 28 L 286.5 40 L 289.5 40 L 314.5 49 L 328 55 L 326 60.5 Q 328.3 61.7 327 66.5 L 325 68.5 Q 326.3 73.8 323.5 75 L 260 84 L 260 79.5 L 253 67.5 L 252 57.5 Q 254.2 56.2 253 51.5 Q 251.8 45.8 247.5 43 L 239.5 42 L 238 40.5 L 238 26.5 L 235.5 24 L 230.5 22 L 212.5 22 L 208.5 23 L 205 26.5 L 204 29.5 L 204 42 Q 195 40.3 192 45.5 L 189 53.5 L 190 54.5 L 190 65.5 L 186 75.5 L 182 80.5 L 182 84 L 179.5 83 L 171.5 83 L 170.5 82 L 142.5 79 L 118 75 L 116 64.5 L 116 62.5 Q 116.6 57.1 115 55 L 128.5 49 L 175.5 33 L 188 27 L 186.5 24 L 180.5 24 L 174.5 26 L 119.5 47 L 105.5 49 L 91.5 56 L 77.5 57 L 33.5 74 L 16.5 82 L 12 85.5 L 13.5 88 L 19.5 89 L 24.5 88 L 29.5 85 L 38.5 84 L 42.5 82 L 46.5 82 L 82.5 72 L 88.5 69 L 90 69.5 Q 89.3 67.3 91.5 68 L 92 65.5 Q 91.3 63.3 93.5 64 L 95 63.5 L 96 71.5 L 95 74.5 L 101 86.5 L 104 104.5 L 106.5 107 Q 111.3 107.8 112 104.5 L 113 86 L 126.5 88 L 131.5 90 L 138.5 90 L 183 98 L 179 108.5 L 175.5 112 L 104.5 138 L 99.5 138 L 82.5 129 L 67.5 129 L 53.5 120 L 10.5 102 L 2.5 102 L 0 103.5 L 0 0 Z " /><path fill="rgb(0,0,0)" stroke="rgb(0,0,0)" stroke-width="1" opacity="0" d="M 0.5 106 L 9.5 113 L 50 131.5 Q 45.5 134 47 142.5 L 50 153.5 Q 47.7 154.8 49 159.5 L 61 166.5 L 71 195 L 78 195 L 78 180.5 L 76 171.5 L 76 162.5 Q 80.1 156.1 89.5 155 L 91.5 156 L 93.5 156 L 100.5 158 Q 102 155.5 103.5 159 L 115.5 162 L 121.5 162 L 128 159 L 128 156.5 L 121.5 150 L 116 146.5 L 151.5 134 L 161.5 132 L 166.5 129 L 181.5 124 L 185 124 L 187.5 128 L 192 130.5 L 193 136 L 185 140.5 Q 181.6 148.1 183 160.5 L 185 166 L 187.5 165 L 194 166 L 194 172.5 L 202.5 184 L 205.5 185 L 237.5 185 L 244 180.5 Q 249.2 175.7 248 166 L 252.5 165 L 255.5 166 L 258 163.5 L 259 161.5 L 259 145.5 L 258 141.5 L 255.5 139 L 249 136 Q 248.9 131.1 252.5 129 L 258 124.5 L 258.5 123 L 270.5 128 L 276.5 129 L 280.5 132 L 284.5 132 L 327 146.5 L 316 156.5 L 317.5 160 Q 320.8 163.2 328.5 162 L 335.5 159 L 337.5 159 L 353.5 155 Q 362 156.5 366 162.5 L 366 177.5 L 365 178.5 L 364 193.5 Q 365.3 196.3 370.5 195 L 374 189.5 L 375 183.5 L 383.5 164 Q 390.8 164.3 393 159.5 L 393 150.5 L 396 137.5 L 392 132.5 L 392 130.5 L 397.5 128 L 399.5 128 Q 407.7 126.2 412.5 121 L 420 119 L 420.5 117 Q 422 119.5 423.5 116 L 436.5 110 L 439.5 107 L 440 216 L 0.5 216 L 0 215.5 L 0.5 106 Z " /><path fill="rgb(75,74,74)" stroke="rgb(75,74,74)" stroke-width="1" opacity="0.8901960784313725" d="M 266.5 27 L 297.5 38 L 316 46.5 L 314.5 47 L 297.5 41 L 296.5 42 L 292.5 40 L 270.5 33 L 265 29.5 L 266.5 27 Z " /><path fill="rgb(75,74,74)" stroke="rgb(75,74,74)" stroke-width="1" opacity="0.8901960784313725" d="M 173.5 28 Q 177.9 26.5 177 29.5 L 169.5 34 L 143.5 43 L 141.5 42 L 119.5 51 L 113.5 52 L 113.5 51 L 117.5 48 L 126.5 46 L 173.5 28 Z M 172 30 L 172 31 L 174 31 L 172 30 Z M 167 32 L 167 33 L 169 33 L 167 32 Z M 164 33 L 164 34 L 166 34 L 164 33 Z " /><path fill="rgb(75,74,74)" stroke="rgb(75,74,74)" stroke-width="1" opacity="0.8901960784313725" d="M 201.5 48 L 202 50.5 L 200.5 54 L 199 49.5 L 201.5 48 Z " /><path fill="rgb(75,74,74)" stroke="rgb(75,74,74)" stroke-width="1" opacity="0.8901960784313725" d="M 240.5 48 Q 242.8 48.8 242 52.5 L 241 52.5 L 240.5 48 Z " /><path fill="rgb(75,74,74)" stroke="rgb(75,74,74)" stroke-width="1" opacity="0.8901960784313725" d="M 104.5 51 L 106.5 52 L 110.5 51 L 110.5 52 L 96.5 56 L 96.5 55 L 102 53.5 L 101.5 52 L 104.5 51 Z " /><path fill="rgb(75,74,74)" stroke="rgb(75,74,74)" stroke-width="1" opacity="0.8901960784313725" d="M 332.5 51 L 341 52.5 L 338.5 54 L 332.5 52 L 332.5 51 Z " /><path fill="rgb(75,74,74)" stroke="rgb(75,74,74)" stroke-width="1" opacity="0.8901960784313725" d="M 85.5 57 Q 90.8 55.8 92 58.5 Q 89.6 61.1 83.5 60 L 85.5 57 Z " /><path fill="rgb(75,74,74)" stroke="rgb(75,74,74)" stroke-width="1" opacity="0.8901960784313725" d="M 329.5 58 L 332 59 L 331.5 62 L 330.5 60 L 329 60.5 L 329.5 58 Z " /><path fill="rgb(75,74,74)" stroke="rgb(75,74,74)" stroke-width="1" opacity="0.8901960784313725" d="M 112.5 59 L 114 59.5 L 112 60 Q 113.1 62.7 110.5 62 L 112.5 59 Z " /><path fill="rgb(75,74,74)" stroke="rgb(75,74,74)" stroke-width="1" opacity="0.8901960784313725" d="M 355.5 59 L 360 59.5 L 355.5 60 L 355.5 59 Z " /><path fill="rgb(75,74,74)" stroke="rgb(75,74,74)" stroke-width="1" opacity="0.8901960784313725" d="M 333.5 61 L 336 61.5 L 333.5 62 L 333.5 61 Z " /><path fill="rgb(75,74,74)" stroke="rgb(75,74,74)" stroke-width="1" opacity="0.8901960784313725" d="M 99 63 Q 102.8 61.5 102 64.5 L 104.5 66 L 107 65 L 108 71.5 L 107.5 74 Q 103.5 74.5 103 71.5 L 103 66 Q 97.4 67.9 99 63 Z " /><path fill="rgb(75,74,74)" stroke="rgb(75,74,74)" stroke-width="1" opacity="0.8901960784313725" d="M 110 64 Q 113.5 62.9 112 70.5 L 111 70.5 L 110 64 Z " /><path fill="rgb(75,74,74)" stroke="rgb(75,74,74)" stroke-width="1" opacity="0.8901960784313725" d="M 331.5 64 Q 333.8 64.8 333 68.5 L 331 71.5 L 331.5 73 Q 328.5 71.5 330 65.5 L 331.5 64 Z " /><path fill="rgb(75,74,74)" stroke="rgb(75,74,74)" stroke-width="1" opacity="0.8901960784313725" d="M 336 66 L 342 66.5 L 339.5 73 L 334.5 74 L 334.5 73 L 337 72.5 L 336 66 Z " /><path fill="rgb(75,74,74)" stroke="rgb(75,74,74)" stroke-width="1" opacity="0.8901960784313725" d="M 343.5 66 L 344 69.5 L 343 69.5 L 343.5 66 Z " /><path fill="rgb(75,74,74)" stroke="rgb(75,74,74)" stroke-width="1" opacity="0.8901960784313725" d="M 99.5 67 L 100 69.5 L 99 69.5 L 99.5 67 Z " /><path fill="rgb(75,74,74)" stroke="rgb(75,74,74)" stroke-width="1" opacity="0.8901960784313725" d="M 114.5 70 L 117 71.5 Q 117.7 74.1 115 73 L 114.5 71 L 113 71.5 L 114.5 70 Z " /><path fill="rgb(75,74,74)" stroke="rgb(75,74,74)" stroke-width="1" opacity="0.8901960784313725" d="M 326 70 L 328 70.5 L 326.5 75 L 326 70 Z " /><path fill="rgb(75,74,74)" stroke="rgb(75,74,74)" stroke-width="1" opacity="0.8901960784313725" d="M 101 73 L 104 74.5 L 103.5 76 L 101.5 75 L 100 75.5 L 101 73 Z " /><path fill="rgb(75,74,74)" stroke="rgb(75,74,74)" stroke-width="1" opacity="0.8901960784313725" d="M 338.5 74 L 341 75.5 L 339.5 76 L 338.5 74 Z " /><path fill="rgb(75,74,74)" stroke="rgb(75,74,74)" stroke-width="1" opacity="0.8901960784313725" d="M 345.5 74 L 346 76.5 L 340.5 85 L 340 83.5 L 343 80.5 Q 342.4 75.4 345.5 74 Z " /><path fill="rgb(75,74,74)" stroke="rgb(75,74,74)" stroke-width="1" opacity="0.8901960784313725" d="M 97.5 75 L 98.5 79 L 101 77.5 Q 101.8 79.8 99.5 79 L 102 82.5 L 101.5 84 L 100 81 Q 97.3 82.1 98 79.5 L 97.5 75 Z " /><path fill="rgb(75,74,74)" stroke="rgb(75,74,74)" stroke-width="1" opacity="0.8901960784313725" d="M 22.5 80 Q 25.9 79.1 24 84.5 L 23 84.5 L 22.5 80 Z " /><path fill="rgb(75,74,74)" stroke="rgb(75,74,74)" stroke-width="1" opacity="0.8901960784313725" d="M 418 80 L 429 85.5 Q 428 89 422.5 88 L 418 86.5 L 419.5 84 L 420.5 86 L 421 83.5 L 419.5 81 L 418 81.5 L 418 80 Z M 424 84 Q 422 87 425 86 Q 426 88 427 86 L 424 84 Z " /><path fill="rgb(75,74,74)" stroke="rgb(75,74,74)" stroke-width="1" opacity="0.8901960784313725" d="M 18.5 83 L 22 84 Q 20.9 86.7 23.5 86 L 23.5 87 L 15.5 88 L 13.5 85 L 16.5 84 L 16.5 85 L 15 85.5 L 17.5 87 L 20 85.5 L 18.5 83 Z " /><path fill="rgb(75,74,74)" stroke="rgb(75,74,74)" stroke-width="1" opacity="0.8901960784313725" d="M 109.5 84 L 112 84 L 112 90.5 L 111 91.5 L 111 103.5 L 109.5 105 L 110 103.5 L 110 85.5 L 109.5 84 Z " /><path fill="rgb(75,74,74)" stroke="rgb(75,74,74)" stroke-width="1" opacity="0.8901960784313725" d="M 330 84 Q 335.3 82.2 333 89.5 L 331.5 93 L 330 84 Z " /><path fill="rgb(75,74,74)" stroke="rgb(75,74,74)" stroke-width="1" opacity="0.8901960784313725" d="M 130.5 87 L 133 87.5 L 130.5 88 L 130.5 87 Z " /><path fill="rgb(75,74,74)" stroke="rgb(75,74,74)" stroke-width="1" opacity="0.8901960784313725" d="M 309 87 L 313 87.5 L 309 89 L 309 87 Z " /><path fill="rgb(75,74,74)" stroke="rgb(75,74,74)" stroke-width="1" opacity="0.8901960784313725" d="M 258.5 91 L 259 96 L 265.5 95 L 265.5 96 Q 260 95.5 258 98.5 L 261 102.5 Q 259.8 107.2 262 108.5 L 260 107.5 L 259.5 104 L 256.5 108 L 256 105.5 Q 259.5 104 257 102.5 L 258.5 91 Z " /><path fill="rgb(75,74,74)" stroke="rgb(75,74,74)" stroke-width="1" opacity="0.8901960784313725" d="M 286.5 91 L 289 91.5 L 286.5 92 L 286.5 91 Z " /><path fill="rgb(75,74,74)" stroke="rgb(75,74,74)" stroke-width="1" opacity="0.8901960784313725" d="M 183.5 92 L 185 93.5 L 185 101.5 L 188 107.5 L 188 110.5 L 191 114.5 L 190.5 116 Q 192.2 118.8 197.5 118 L 200.5 116 L 235.5 116 L 235.5 117 L 200.5 117 L 197 119.5 L 198 120.5 L 198.5 129 L 203 125.5 Q 200.9 131.3 205.5 130 L 208 130.5 L 207.5 132 Q 211.9 133.5 211 130.5 L 212 130.5 Q 211.3 132.8 213.5 132 L 216 130.5 Q 215.3 132.8 217.5 132 L 220 130.5 Q 219.3 133.1 222 132 Q 221 129 224 130 Q 223 133 226 132 Q 225 129 228 130 Q 227 133 230 132 L 230.5 130 L 234 132 L 234.5 130 L 236.5 131 L 240 128.5 L 241 117 L 238 116.5 L 240.5 115 L 244.5 118 L 247.5 118 L 251 115.5 L 253.5 112 L 252.5 115 L 256 114 L 257.5 111 L 261 110 Q 262.1 112.7 259.5 112 Q 256.8 113.3 259 114.5 Q 257.5 120.5 260.5 122 L 325.5 144 L 328.5 144 L 331.5 146 L 340 140.5 L 339.5 139 L 344.5 140 L 351.5 136 L 350.5 138 L 330.5 148 L 324.5 153 L 323 150 L 329 146.5 L 304.5 137 L 301.5 137 L 286.5 131 L 281.5 131 L 279.5 129 L 257 122 L 254.5 127 L 249 131.5 L 247 135.5 L 245.5 146 L 244.5 144 L 244 162.5 Q 246.3 163.7 245 168.5 L 240.5 174 L 239 173.5 L 243 170.5 L 242.5 168 L 239 170.5 L 241 166.5 L 237 168.5 L 239 165 Q 241.7 166.1 241 163.5 L 240 160 Q 232 158.3 229 162.5 L 228 167.5 L 230 167.5 L 232.5 171 L 235 170.5 L 232 168.5 Q 231 163 234.5 162 Q 238.3 161 237 164 L 235 164.5 L 238 165.5 L 234 167.5 L 238 170 L 238 172 Q 233.9 170.7 235 174 Q 239.1 172.7 238 176 L 230.5 174 L 224 175 L 224.5 180 L 225.5 178 L 227 182 L 225 182.5 L 225.5 184 L 206 183.5 L 216 182.5 L 204.5 182 L 203 180.5 L 204.5 181 L 220.5 181 L 221.5 180 L 223 180.5 L 222.5 176 L 220.5 176 L 204.5 174 L 202 175.5 L 203 178.5 L 201 177.5 Q 199.3 172.7 203.5 174 L 203 172.5 L 201.5 170 L 199.5 169 L 199 174.5 L 200 177 L 196 174.5 L 195 160 L 190 158 L 189.5 155 L 188.5 160 L 187.5 155 L 185.5 161 Q 182.1 157.4 184 148.5 L 187.5 141 L 192.5 138 L 192 139.5 L 191 141.5 L 192.5 144 L 195 143 L 194 134.5 L 195 131 L 186 125.5 L 184.5 122 L 163.5 129 L 163.5 128 L 183 120.5 Q 182.4 115.1 184 113 Q 181.3 114.1 182 111.5 L 180 108.5 L 182 107.5 Q 179.8 108.8 182.5 110 L 185.5 112 L 187 109.5 Q 185 111.2 183 107.5 L 184 104.5 L 181 105.5 L 184 97 L 176 95.5 L 180.5 95 L 184 96 L 183.5 92 Z M 187 120 L 186 123 L 187 123 L 187 120 Z M 256 120 Q 254 123 257 122 L 256 120 Z M 192 122 L 187 124 L 188 126 L 192 127 L 193 128 L 192 122 Z M 249 122 L 250 126 Q 249 128 252 127 L 253 124 L 253 126 L 255 125 L 254 123 L 253 123 L 249 122 Z M 202 127 L 196 135 Q 194 141 198 143 Q 197 145 200 144 L 203 150 L 204 155 L 204 151 L 212 153 L 207 153 L 205 156 L 205 157 L 219 155 L 220 152 L 217 151 L 216 150 L 213 152 L 217 147 L 216 143 L 213 140 L 211 140 L 209 141 L 207 140 Q 204 141 206 143 L 205 142 L 203 145 L 202 145 L 207 139 L 216 139 L 217 140 L 221 138 L 239 138 L 239 134 L 217 134 L 216 135 L 214 134 L 212 135 L 207 134 L 205 134 Q 201 133 202 127 Z M 222 139 Q 218 141 222 143 L 219 144 L 221 155 L 224 153 L 225 151 L 239 151 L 240 148 L 240 143 L 236 149 L 238 149 L 238 150 L 228 150 L 227 148 L 230 149 Q 235 150 236 148 L 233 146 L 233 143 Q 232 140 236 141 L 235 143 L 237 143 L 238 145 L 239 142 L 237 139 L 222 139 Z M 188 143 L 187 147 L 188 147 L 188 143 Z M 243 143 L 241 145 L 242 147 L 243 147 L 243 143 Z M 194 149 L 193 154 L 194 154 L 194 149 Z M 240 151 L 238 152 L 238 154 L 236 154 L 235 152 L 227 153 L 229 154 Q 224 153 223 156 L 242 157 L 243 158 Q 244 154 241 155 L 240 151 Z M 216 156 L 204 160 L 205 161 Q 204 169 206 173 L 221 173 L 223 172 L 224 169 L 224 166 L 223 168 L 222 167 L 221 169 L 217 172 L 207 172 Q 205 168 210 169 L 209 168 L 210 166 L 211 168 L 212 166 L 209 164 L 210 162 L 213 163 L 212 165 L 215 165 L 214 162 Q 215 158 213 159 L 213 158 L 218 162 L 216 162 Q 215 165 218 164 Q 219 167 221 163 L 222 166 L 223 166 L 221 158 Q 220 155 216 156 Z M 218 168 Q 217 171 212 170 L 212 171 Q 218 172 219 169 L 218 168 Z " /><path fill="rgb(75,74,74)" stroke="rgb(75,74,74)" stroke-width="1" opacity="0.8901960784313725" d="M 166.5 93 L 169 93.5 L 166.5 94 L 166.5 93 Z " /><path fill="rgb(75,74,74)" stroke="rgb(75,74,74)" stroke-width="1" opacity="0.8901960784313725" d="M 273.5 93 L 277 93.5 L 273.5 94 L 273.5 93 Z " /><path fill="rgb(75,74,74)" stroke="rgb(75,74,74)" stroke-width="1" opacity="0.8901960784313725" d="M 170.5 94 Q 174.3 93.3 175 95.5 L 173.5 95 Q 169.5 95.8 170.5 94 Z " /><path fill="rgb(75,74,74)" stroke="rgb(75,74,74)" stroke-width="1" opacity="0.8901960784313725" d="M 268.5 94 L 272 94.5 L 267.5 96 L 268.5 94 Z " /><path fill="rgb(75,74,74)" stroke="rgb(75,74,74)" stroke-width="1" opacity="0.8901960784313725" d="M 332.5 94 L 333 98.5 L 332 98.5 L 332.5 94 Z " /><path fill="rgb(75,74,74)" stroke="rgb(75,74,74)" stroke-width="1" opacity="0.8901960784313725" d="M 332.5 100 L 334 104.5 L 332 105 L 332.5 100 Z " /><path fill="rgb(75,74,74)" stroke="rgb(75,74,74)" stroke-width="1" opacity="0.8901960784313725" d="M 190.5 102 L 189.5 104 L 190.5 102 Z " /><path fill="rgb(75,74,74)" stroke="rgb(75,74,74)" stroke-width="1" opacity="0.8901960784313725" d="M 247.5 102 L 250 103.5 L 248 106.5 L 250 107.5 L 250.5 106 L 251 108.5 L 248 110 L 247.5 112 L 246 106.5 L 247 104.5 L 245 104.5 L 247.5 102 Z " /><path fill="rgb(75,74,74)" stroke="rgb(75,74,74)" stroke-width="1" opacity="0.8901960784313725" d="M 251.5 102 L 253.5 105 L 251.5 102 Z " /><path fill="rgb(75,74,74)" stroke="rgb(75,74,74)" stroke-width="1" opacity="0.8901960784313725" d="M 193.5 103 Q 197.3 104.3 196 110.5 L 194 111.5 L 195 106.5 L 193.5 103 Z " /><path fill="rgb(75,74,74)" stroke="rgb(75,74,74)" stroke-width="1" opacity="0.8901960784313725" d="M 437.5 103 L 440 103.5 Q 440.5 107.5 437.5 108 L 436 107.5 L 438 104.5 L 437.5 103 Z " /><path fill="rgb(75,74,74)" stroke="rgb(75,74,74)" stroke-width="1" opacity="0.8901960784313725" d="M 2.5 104 L 5 107.5 L 2 105.5 L 2.5 104 Z " /><path fill="rgb(75,74,74)" stroke="rgb(75,74,74)" stroke-width="1" opacity="0.8901960784313725" d="M 12.5 104 L 55 122 L 54 124.5 L 56.5 125 L 56.5 123 L 61 125 L 61 127 L 63 127 Q 61.9 129.7 64.5 129 L 64.5 130 L 60 130.5 L 60.5 132 L 57 129.5 L 60 128.5 L 56 128 L 55.5 130 L 54.5 128 Q 53.4 130.7 50 130 Q 51.3 127 47.5 128 L 42 126 L 41.5 124 L 39.5 124 L 26.5 119 L 6 107.5 L 12.5 104 Z " /><path fill="rgb(75,74,74)" stroke="rgb(75,74,74)" stroke-width="1" opacity="0.8901960784313725" d="M 428.5 104 L 435 106.5 L 425.5 113 L 405.5 123 L 392.5 126 L 389.5 125 L 386 127.5 L 387.5 128 L 390.5 126 L 391 128 L 383.5 131 L 384.5 129 L 386 128.5 L 381 126.5 L 385.5 125 L 387.5 125 L 389 124.5 L 387 123.5 L 399.5 116 L 428.5 104 Z " /><path fill="rgb(75,74,74)" stroke="rgb(75,74,74)" stroke-width="1" opacity="0.8901960784313725" d="M 191.5 106 L 192.5 108 L 194 107.5 Q 195 111.3 192 110 L 191.5 106 Z " /><path fill="rgb(75,74,74)" stroke="rgb(75,74,74)" stroke-width="1" opacity="0.8901960784313725" d="M 197.5 106 L 198 110.5 L 197 110.5 L 197.5 106 Z " /><path fill="rgb(75,74,74)" stroke="rgb(75,74,74)" stroke-width="1" opacity="0.8901960784313725" d="M 254.5 106 L 255 110.5 L 254 110.5 L 254.5 106 Z " /><path fill="rgb(75,74,74)" stroke="rgb(75,74,74)" stroke-width="1" opacity="0.8901960784313725" d="M 246.5 113 L 247.5 115 L 246.5 113 Z " /><path fill="rgb(75,74,74)" stroke="rgb(75,74,74)" stroke-width="1" opacity="0.8901960784313725" d="M 380.5 128 Q 383.1 127.3 382 130 L 378 129.5 L 380.5 128 Z " /><path fill="rgb(75,74,74)" stroke="rgb(75,74,74)" stroke-width="1" opacity="0.8901960784313725" d="M 160.5 129 Q 163.1 128.3 162 131 L 157 130.5 L 160.5 129 Z " /><path fill="rgb(75,74,74)" stroke="rgb(75,74,74)" stroke-width="1" opacity="0.8901960784313725" d="M 68.5 130 L 80.5 130 L 81 131.5 L 99.5 139 L 103 139 L 104.5 142 L 111.5 146 L 130.5 139 L 130.5 140 L 117.5 144 L 114 146.5 L 120 150.5 L 117.5 154 L 109 149.5 Q 109.8 147.3 107.5 148 L 79.5 133 L 74.5 133 L 73.5 134 L 67 134 L 68.5 130 Z " /><path fill="rgb(75,74,74)" stroke="rgb(75,74,74)" stroke-width="1" opacity="0.8901960784313725" d="M 153.5 131 L 155 131.5 L 151.5 133 L 151.5 132 L 153.5 131 Z " /><path fill="rgb(75,74,74)" stroke="rgb(75,74,74)" stroke-width="1" opacity="0.8901960784313725" d="M 369.5 132 L 375 132.5 L 369.5 133 L 369.5 132 Z " /><path fill="rgb(75,74,74)" stroke="rgb(75,74,74)" stroke-width="1" opacity="0.8901960784313725" d="M 49.5 136 L 56 138.5 L 52 139.5 Q 54.3 140.8 51.5 142 L 48 139.5 L 48.5 138 L 49 140 Q 51.7 141.1 51 138.5 L 49.5 136 Z " /><path fill="rgb(75,74,74)" stroke="rgb(75,74,74)" stroke-width="1" opacity="0.8901960784313725" d="M 138.5 136 L 140 136.5 L 136.5 138 L 136.5 137 L 138.5 136 Z " /><path fill="rgb(75,74,74)" stroke="rgb(75,74,74)" stroke-width="1" opacity="0.8901960784313725" d="M 390.5 138 Q 395.8 136.5 394 141 L 391.5 142 L 390.5 138 Z " /><path fill="rgb(75,74,74)" stroke="rgb(75,74,74)" stroke-width="1" opacity="0.8901960784313725" d="M 381 139 L 385 140.5 Q 385.7 147.5 384 151 L 379 151 L 379 146.5 L 381 139 Z " /><path fill="rgb(75,74,74)" stroke="rgb(75,74,74)" stroke-width="1" opacity="0.8901960784313725" d="M 59.5 142 L 63 143.5 Q 66 145.8 65 151 L 60 151 L 60 148.5 L 58 143.5 L 59.5 142 Z " /><path fill="rgb(75,74,74)" stroke="rgb(75,74,74)" stroke-width="1" opacity="0.8901960784313725" d="M 228.5 143 L 231 143.5 Q 228.9 146.8 228.5 143 Z " /><path fill="rgb(75,74,74)" stroke="rgb(75,74,74)" stroke-width="1" opacity="0.8901960784313725" d="M 256.5 143 Q 259 147.5 258 155.5 L 255 157 L 254.5 154 L 253.5 157 L 253 154 L 250.5 153 L 249.5 155 L 248 153.5 L 248 145 Q 250.7 143.9 250 146.5 L 253 146.5 L 253.5 144 L 256 145 L 256.5 143 Z " /><path fill="rgb(75,74,74)" stroke="rgb(75,74,74)" stroke-width="1" opacity="0.8901960784313725" d="M 390.5 143 L 391 145.5 L 390 145.5 L 390.5 143 Z " /><path fill="rgb(75,74,74)" stroke="rgb(75,74,74)" stroke-width="1" opacity="0.8901960784313725" d="M 213.5 144 L 214 146.5 Q 213.3 149.8 208.5 149 L 206.5 146 L 208 146.5 L 208.5 145 L 210.5 146 L 213.5 144 Z " /><path fill="rgb(75,74,74)" stroke="rgb(75,74,74)" stroke-width="1" opacity="0.8901960784313725" d="M 54.5 146 L 56 150.5 L 54.5 154 L 51 151.5 L 55 150.5 L 54.5 146 Z " /><path fill="rgb(75,74,74)" stroke="rgb(75,74,74)" stroke-width="1" opacity="0.8901960784313725" d="M 389.5 147 L 390 149.5 L 389 149.5 L 389.5 147 Z " /><path fill="rgb(75,74,74)" stroke="rgb(75,74,74)" stroke-width="1" opacity="0.8901960784313725" d="M 373.5 148 L 373.5 150 L 375 150.5 L 371.5 152 L 369.5 149 L 373.5 148 Z " /><path fill="rgb(75,74,74)" stroke="rgb(75,74,74)" stroke-width="1" opacity="0.8901960784313725" d="M 72 149 L 74 149.5 L 71 151.5 L 72 149 Z " /><path fill="rgb(75,74,74)" stroke="rgb(75,74,74)" stroke-width="1" opacity="0.8901960784313725" d="M 389 151 L 392 151.5 L 389 153.5 L 389 151 Z " /><path fill="rgb(75,74,74)" stroke="rgb(75,74,74)" stroke-width="1" opacity="0.8901960784313725" d="M 63.5 153 L 67 153.5 L 63.5 154 L 63.5 153 Z " /><path fill="rgb(75,74,74)" stroke="rgb(75,74,74)" stroke-width="1" opacity="0.8901960784313725" d="M 85.5 153 L 86 154.5 L 77 159 L 75 162.5 L 74.5 167 L 74 162 L 69.5 164 L 65 162.5 L 71.5 161 L 85.5 153 Z " /><path fill="rgb(75,74,74)" stroke="rgb(75,74,74)" stroke-width="1" opacity="0.8901960784313725" d="M 357.5 153 L 374.5 162 L 385.5 162 L 388.5 157 L 391.5 156 L 391.5 157 L 389 158.5 Q 388.3 160.8 390.5 160 L 392 159.5 Q 390.1 163.6 383.5 163 L 381 165.5 Q 381.7 168.1 379 167 Q 380.3 163.7 375.5 165 L 369.5 162 L 368.5 169 L 366 159 L 356 154.5 L 357.5 153 Z " /><path fill="rgb(75,74,74)" stroke="rgb(75,74,74)" stroke-width="1" opacity="0.8901960784313725" d="M 381 153 L 388 154.5 L 381 155 L 381 153 Z " /><path fill="rgb(75,74,74)" stroke="rgb(75,74,74)" stroke-width="1" opacity="0.8901960784313725" d="M 56.5 154 L 62 154.5 L 56.5 155 L 56.5 154 Z " /><path fill="rgb(75,74,74)" stroke="rgb(75,74,74)" stroke-width="1" opacity="0.8901960784313725" d="M 66.5 155 L 65.5 157 L 66.5 155 Z " /><path fill="rgb(75,74,74)" stroke="rgb(75,74,74)" stroke-width="1" opacity="0.8901960784313725" d="M 375.5 155 L 378 156.5 L 376.5 159 L 374 157.5 L 375.5 155 Z M 375 156 Q 374 159 377 158 Q 378 155 375 156 Z " /><path fill="rgb(75,74,74)" stroke="rgb(75,74,74)" stroke-width="1" opacity="0.8901960784313725" d="M 67.5 157 L 66.5 159 L 65 158.5 L 67.5 157 Z " /><path fill="rgb(75,74,74)" stroke="rgb(75,74,74)" stroke-width="1" opacity="0.8901960784313725" d="M 115.5 157 L 115 158.5 L 114.5 160 L 114 158.5 L 115.5 157 Z " /><path fill="rgb(75,74,74)" stroke="rgb(75,74,74)" stroke-width="1" opacity="0.8901960784313725" d="M 125.5 157 L 127 157.5 L 123.5 159 L 123.5 158 L 125.5 157 Z " /><path fill="rgb(75,74,74)" stroke="rgb(75,74,74)" stroke-width="1" opacity="0.8901960784313725" d="M 327.5 157 L 329 161 L 322.5 161 L 317 158.5 L 319.5 158 Q 322 161.2 328 160 L 327.5 157 Z " /><path fill="rgb(75,74,74)" stroke="rgb(75,74,74)" stroke-width="1" opacity="0.8901960784313725" d="M 54.5 158 L 56 162 Q 60.6 160.8 62 163.5 L 60.5 164 L 55 161.5 L 54.5 158 Z " /><path fill="rgb(75,74,74)" stroke="rgb(75,74,74)" stroke-width="1" opacity="0.8901960784313725" d="M 218.5 158 Q 220.8 157.3 220 159.5 L 218.5 158 Z " /><path fill="rgb(75,74,74)" stroke="rgb(75,74,74)" stroke-width="1" opacity="0.8901960784313725" d="M 241.5 178 L 242 179.5 L 238.5 182 L 241.5 178 Z " /><path fill="rgb(75,74,74)" stroke="rgb(75,74,74)" stroke-width="1" opacity="0.8901960784313725" d="M 76.5 192 L 77 194 L 74 193.5 L 76.5 192 Z " /><path fill="rgb(75,74,74)" stroke="rgb(75,74,74)" stroke-width="1" opacity="0.8901960784313725" d="M 366.5 193 L 368.5 194 L 370 193.5 L 367.5 195 L 366.5 193 Z " /></svg>