<svg width="440" height="216" version="1.1" xmlns="http://www.w3.org/2000/svg" desc="Created with imagetracer.js version 1.2.6" ><path fill="rgb(17,17,18)" stroke="rgb(17,17,18)" stroke-width="1" opacity="0.34901960784313724" d="M 176.5 0 L 186.5 0 L 188 1.5 L 176.5 5 L 157.5 16 L 130 28.5 L 131 29.5 L 132 42.5 L 131 42.5 L 129 27 L 146.5 20 L 180.5 2 L 182.5 2 L 184 1.5 L 176.5 1 L 161.5 7 L 132.5 22 Q 119.3 23.3 111.5 30 L 96.5 33 L 57.5 48 L 57.5 47 L 96.5 32 L 110.5 29 Q 119 22.5 132.5 21 L 167.5 3 L 176.5 0 Z " /><path fill="rgb(17,17,18)" stroke="rgb(17,17,18)" stroke-width="1" opacity="0.34901960784313724" d="M 254.5 0 L 268.5 1 L 308.5 21 Q 322 22.5 330.5 29 L 342.5 31 L 379.5 45 Q 389.2 48.3 395 55.5 L 397 60.5 L 396 60.5 L 396 58.5 L 390.5 52 L 366.5 41 Q 351 37.5 338.5 31 L 329.5 30 L 315.5 23 L 308.5 22 L 268.5 2 L 257.5 1 L 257.5 2 L 260.5 2 L 294.5 20 L 312 27 Q 310 31.5 311 40.5 L 309.5 44 L 309 39.5 L 311 28 Q 284.9 18.4 262.5 4 L 253 1.5 L 254.5 0 Z " /><path fill="rgb(17,17,18)" stroke="rgb(17,17,18)" stroke-width="1" opacity="0.34901960784313724" d="M 111.5 41 Q 114.3 40.4 113 46.5 L 117.5 52 L 126.5 54 L 186 113.5 L 191 119.5 L 192 128.5 L 191 128.5 L 191 122.5 L 187 116.5 L 142 71.5 L 142 70 L 137 66.5 L 127.5 56 Q 123.5 53 116.5 53 L 113 49.5 L 112 43 Q 103.5 47.3 90.5 48 L 90.5 47 Q 103.7 46.7 111.5 41 Z " /><path fill="rgb(17,17,18)" stroke="rgb(17,17,18)" stroke-width="1" opacity="0.34901960784313724" d="M 328 41 L 341 45.5 L 337.5 46 L 329.5 43 Q 329.6 50.6 324.5 53 L 315.5 55 L 308 61.5 L 255 115.5 L 249.5 123 L 250 121.5 L 257 111.5 L 314.5 54 L 326 51 Q 328.9 47.8 328 41 Z " /><path fill="rgb(17,17,18)" stroke="rgb(17,17,18)" stroke-width="1" opacity="0.34901960784313724" d="M 342.5 46 L 346 46.5 L 342.5 47 L 342.5 46 Z " /><path fill="rgb(17,17,18)" stroke="rgb(17,17,18)" stroke-width="1" opacity="0.34901960784313724" d="M 347.5 47 L 351 47.5 L 347.5 48 L 347.5 47 Z " /><path fill="rgb(17,17,18)" stroke="rgb(17,17,18)" stroke-width="1" opacity="0.34901960784313724" d="M 54.5 48 L 56 48.5 L 48 54.5 L 45.5 58 L 46 56.5 L 50.5 51 L 54.5 48 Z " /><path fill="rgb(17,17,18)" stroke="rgb(17,17,18)" stroke-width="1" opacity="0.34901960784313724" d="M 84.5 48 L 89 48.5 L 79.5 50 L 79.5 49 L 84.5 48 Z " /><path fill="rgb(17,17,18)" stroke="rgb(17,17,18)" stroke-width="1" opacity="0.34901960784313724" d="M 352.5 48 L 357 48.5 L 352.5 49 L 352.5 48 Z " /><path fill="rgb(17,17,18)" stroke="rgb(17,17,18)" stroke-width="1" opacity="0.34901960784313724" d="M 358.5 49 L 362 49.5 L 358.5 50 L 358.5 49 Z " /><path fill="rgb(17,17,18)" stroke="rgb(17,17,18)" stroke-width="1" opacity="0.34901960784313724" d="M 73.5 50 L 77 50.5 L 73.5 51 L 73.5 50 Z " /><path fill="rgb(17,17,18)" stroke="rgb(17,17,18)" stroke-width="1" opacity="0.34901960784313724" d="M 364.5 50 L 368 50.5 L 364.5 51 L 364.5 50 Z " /><path fill="rgb(17,17,18)" stroke="rgb(17,17,18)" stroke-width="1" opacity="0.34901960784313724" d="M 69.5 51 L 72 51.5 L 69.5 52 L 69.5 51 Z " /><path fill="rgb(17,17,18)" stroke="rgb(17,17,18)" stroke-width="1" opacity="0.34901960784313724" d="M 369.5 51 L 373 51.5 L 369.5 52 L 369.5 51 Z " /><path fill="rgb(17,17,18)" stroke="rgb(17,17,18)" stroke-width="1" opacity="0.34901960784313724" d="M 64.5 52 L 68 52.5 L 61.5 54 L 61.5 53 L 64.5 52 Z " /><path fill="rgb(17,17,18)" stroke="rgb(17,17,18)" stroke-width="1" opacity="0.34901960784313724" d="M 374.5 52 L 377 52.5 L 374.5 53 L 374.5 52 Z " /><path fill="rgb(17,17,18)" stroke="rgb(17,17,18)" stroke-width="1" opacity="0.34901960784313724" d="M 55.5 55 L 57 55.5 L 48.5 60 L 49.5 58 L 55.5 55 Z " /><path fill="rgb(17,17,18)" stroke="rgb(17,17,18)" stroke-width="1" opacity="0.34901960784313724" d="M 384.5 55 L 395 60.5 L 393.5 61 L 384.5 56 L 384.5 55 Z " /><path fill="rgb(17,17,18)" stroke="rgb(17,17,18)" stroke-width="1" opacity="0.34901960784313724" d="M 44.5 59 L 47 60.5 L 44 61 L 44.5 59 Z " /><path fill="rgb(17,17,18)" stroke="rgb(17,17,18)" stroke-width="1" opacity="0.34901960784313724" d="M 287.5 59 L 290 62.5 L 289 62.5 L 287.5 59 Z " /><path fill="rgb(17,17,18)" stroke="rgb(17,17,18)" stroke-width="1" opacity="0.34901960784313724" d="M 151.5 61 L 152 64 L 149 63.5 L 151 63 L 151.5 61 Z " /><path fill="rgb(17,17,18)" stroke="rgb(17,17,18)" stroke-width="1" opacity="0.34901960784313724" d="M 284.5 63 L 285 67.5 L 284 67.5 L 284.5 63 Z " /><path fill="rgb(17,17,18)" stroke="rgb(17,17,18)" stroke-width="1" opacity="0.34901960784313724" d="M 30 70 Q 41.2 68.9 47.5 74 L 78 97.5 L 79.5 100 L 90.5 107 L 101.5 111 L 126.5 128 L 135 130.5 L 130.5 131 L 99.5 111 L 89.5 108 L 85.5 104 L 80.5 102 Q 66.1 87.4 48.5 76 L 37.5 71 L 31.5 71 L 40.5 81 L 43.5 83 L 46.5 87 L 70 104.5 Q 70.8 106.8 68.5 106 L 67 107.5 L 66.5 116 L 66 107.5 Q 71.2 105.2 67.5 103 L 49.5 91 L 30 72.5 L 30 70 Z " /><path fill="rgb(17,17,18)" stroke="rgb(17,17,18)" stroke-width="1" opacity="0.34901960784313724" d="M 403.5 70 L 410.5 70 L 411 72.5 L 390.5 92 L 372 104.5 L 375 106 L 375 129.5 L 372.5 134 L 365.5 138 L 360.5 138 Q 357 133.5 347.5 135 L 321.5 142 L 317.5 142 L 308.5 148 L 304.5 149 Q 303.5 146 298.5 147 L 261.5 157 L 253 162.5 L 250 169.5 L 249.5 176 L 249 169.5 L 253 160 L 272.5 152 L 276.5 152 L 302.5 145 L 304 148 L 308.5 147 L 316.5 141 L 320.5 141 L 352.5 133 L 360.5 137 L 364.5 137 L 373 131.5 L 374 129.5 L 374 107.5 L 371 106 L 373.5 102 L 386.5 94 L 409 72.5 Q 409.9 69.1 404.5 71 Q 393.3 74.3 385.5 81 L 351.5 108 L 341.5 111 L 313.5 130 L 303 132 Q 304.5 124.8 300.5 122 L 298 123.5 L 297 133 L 294.5 134 L 296 131.5 L 297 123.5 L 299.5 121 L 303 122 L 304.5 131 L 314.5 128 L 342.5 109 L 350.5 107 L 362 99.5 L 363.5 97 L 390.5 76 L 403.5 70 Z " /><path fill="rgb(17,17,18)" stroke="rgb(17,17,18)" stroke-width="1" opacity="0.34901960784313724" d="M 233.5 89 L 234 97.5 L 233 97.5 L 233.5 89 Z " /><path fill="rgb(17,17,18)" stroke="rgb(17,17,18)" stroke-width="1" opacity="0.34901960784313724" d="M 207.5 90 L 208 99 L 206 98.5 L 207.5 90 Z " /><path fill="rgb(17,17,18)" stroke="rgb(17,17,18)" stroke-width="1" opacity="0.34901960784313724" d="M 140.5 121 L 144 123.5 L 145 131.5 L 144 131.5 L 143 123.5 L 141.5 122 L 139 123.5 L 138 132 L 136 131.5 Q 138.3 130.2 137 125.5 L 140.5 121 Z " /><path fill="rgb(17,17,18)" stroke="rgb(17,17,18)" stroke-width="1" opacity="0.34901960784313724" d="M 66.5 125 L 67 128.5 L 66 128.5 L 66.5 125 Z " /><path fill="rgb(17,17,18)" stroke="rgb(17,17,18)" stroke-width="1" opacity="0.34901960784313724" d="M 67.5 130 L 70.5 134 L 76.5 137 L 80.5 137 Q 84.3 132.3 94.5 134 L 126.5 142 L 132.5 147 L 137 148 L 138.5 145 L 143 146.5 L 138 147 Q 139.3 150.3 134.5 149 L 123.5 142 L 119.5 142 L 93.5 135 L 85.5 135 L 79.5 139 Q 71 137.5 67 131.5 L 67.5 130 Z " /><path fill="rgb(17,17,18)" stroke="rgb(17,17,18)" stroke-width="1" opacity="0.34901960784313724" d="M 190.5 130 L 191 133.5 L 190 133.5 L 190.5 130 Z " /><path fill="rgb(17,17,18)" stroke="rgb(17,17,18)" stroke-width="1" opacity="0.34901960784313724" d="M 144.5 147 L 171.5 153 L 188 160.5 L 190 173.5 L 192 175.5 L 192 183.5 L 191 183.5 L 191 176.5 Q 187 172.1 188 162.5 L 185.5 160 L 167.5 153 L 144.5 148 L 144.5 147 Z " /><path fill="rgb(17,17,18)" stroke="rgb(17,17,18)" stroke-width="1" opacity="0.34901960784313724" d="M 249.5 177 L 250 187.5 L 249 188.5 L 249 199.5 L 247.5 201 Q 243 200 242 202.5 Q 241 211.5 235.5 216 L 231 215.5 Q 235.7 215.7 237 212.5 L 241 201 L 248 200 L 248 186.5 L 249 185.5 L 249.5 177 Z " /><path fill="rgb(17,17,18)" stroke="rgb(17,17,18)" stroke-width="1" opacity="0.34901960784313724" d="M 192.5 186 L 193 200 L 197 200.5 L 193.5 201 L 192 199.5 L 192.5 186 Z " /><path fill="rgb(17,17,18)" stroke="rgb(17,17,18)" stroke-width="1" opacity="0.34901960784313724" d="M 198.5 201 Q 201.1 200.2 200 203.5 L 206.5 215 L 214 215.5 L 206.5 216 Q 200.2 209.8 198.5 201 Z " /><path fill="rgb(0,0,0)" stroke="rgb(0,0,0)" stroke-width="1" opacity="0" d="M 0 0 L 176 0.5 L 167.5 3 L 132.5 21 L 125.5 22 L 113.5 28 L 102.5 30 L 63.5 44 L 54.5 48 L 46 55.5 L 44 61 L 49.5 60 L 60.5 54 L 77.5 50 L 83.5 50 Q 90 47 99.5 47 L 112 43 Q 110.9 50.6 116.5 53 Q 123.5 53 127.5 56 L 137 65.5 L 140.5 70 Q 142.8 69.3 142 71.5 L 187 116.5 Q 192.4 119.6 191 129.5 L 190 136 L 179.5 138 L 171.5 138 L 146.5 133 L 145 131.5 L 144 123.5 L 141.5 121 L 138 123.5 L 137 131 L 126.5 128 L 101.5 111 L 90.5 107 L 78 98.5 L 76.5 96 L 47.5 74 Q 41.2 68.9 30 70 L 31.5 74 Q 47.6 91.9 69 104.5 Q 64 106.5 66 115.5 L 67 116.5 L 67 124.5 L 66 128.5 L 71.5 136 L 79.5 139 Q 82.9 133.4 93.5 135 L 119.5 142 L 123.5 142 L 134.5 149 L 138 149 Q 136.6 145 143.5 147 L 179.5 157 L 188 162.5 L 188 169.5 L 191 176.5 Q 189.3 182.8 192 184.5 L 192 199.5 L 193.5 201 Q 198 200 199 202.5 Q 200.8 210.7 206 215.5 L 0 216 L 0 0 Z " /><path fill="rgb(0,0,0)" stroke="rgb(0,0,0)" stroke-width="1" opacity="0" d="M 187.5 0 L 254 0.5 L 253.5 2 L 262.5 4 Q 284.9 18.4 311 28 L 310 30.5 L 309 44.5 L 305.5 50 L 302.5 52 L 290.5 63 L 287.5 59 L 285 60 L 284 68.5 L 281.5 72 L 255.5 94 L 245.5 98 L 237.5 99 L 234 98 Q 235.8 88 230.5 84 Q 225.5 81 216.5 82 L 210.5 84 L 208 86.5 L 207 97.5 L 205.5 99 Q 202.3 96.7 195.5 98 L 185.5 94 Q 170.3 83.2 158 69.5 L 156 59 Q 152.2 58.3 151 61.5 Q 151.7 64.1 149 63 L 147.5 60 L 138 53 Q 139.1 50.3 136.5 51 L 132 43.5 L 131 29.5 L 130 28.5 L 157.5 16 L 176.5 5 L 188 1.5 L 187.5 0 Z " /><path fill="rgb(0,0,0)" stroke="rgb(0,0,0)" stroke-width="1" opacity="0" d="M 265.5 0 L 440 0 L 440 216 L 236 215.5 L 243.5 201 Q 248 202 249 199.5 L 250 169.5 L 255.5 160 L 273.5 153 L 293.5 148 L 302.5 147 L 306.5 149 L 317.5 142 L 321.5 142 L 347.5 135 L 355.5 135 Q 358.1 138.9 365.5 138 L 374 132.5 L 375 129.5 L 375 106 L 372 104.5 L 390.5 92 L 411 72.5 L 410.5 70 L 403.5 70 L 390.5 76 L 362 98.5 L 360.5 101 L 353.5 104 L 350.5 107 L 342.5 109 L 314.5 128 L 304.5 131 L 303 122 L 299.5 121 L 297 123.5 Q 297.9 130.4 294.5 133 L 269.5 138 L 267.5 138 Q 262.8 139.3 261.5 137 L 259.5 137 Q 253 138 251 134.5 L 250 122.5 L 255 115.5 L 311.5 58 L 317.5 54 L 324.5 53 L 328 49.5 L 329.5 43 L 337.5 46 L 377.5 53 L 393.5 61 L 397 61 L 397 58.5 L 390.5 51 L 379.5 45 L 342.5 31 L 330.5 29 Q 322 22.5 308.5 21 L 273.5 3 L 265.5 1 L 265.5 0 Z " /><path fill="rgb(158,163,167)" stroke="rgb(158,163,167)" stroke-width="1" opacity="0.9294117647058824" d="M 124.5 33 L 127 33.5 L 124.5 34 L 124.5 33 Z " /><path fill="rgb(158,163,167)" stroke="rgb(158,163,167)" stroke-width="1" opacity="0.9294117647058824" d="M 130.5 42 L 136.5 51 L 139.5 53 L 149 61.5 Q 147.8 65.3 151.5 64 L 150 66.5 L 151 69.5 L 149.5 70 L 127.5 49 L 123 47 Q 121.8 44 125.5 45 L 130.5 42 Z " /><path fill="rgb(158,163,167)" stroke="rgb(158,163,167)" stroke-width="1" opacity="0.9294117647058824" d="M 310.5 43 L 318 45 Q 319.1 47.7 316.5 47 L 280.5 81 L 279 81 Q 280.1 83.7 277.5 83 L 251 109.5 Q 246.3 113.5 248 123 Q 252 121.6 250 128.5 Q 252.3 129.7 251 134.5 L 252.5 136 L 260.5 138 L 262.5 138 Q 267.3 139.3 268.5 137 L 270.5 137 L 277.5 137 L 293.5 133 L 297 134.5 Q 298 139 295.5 140 L 269.5 145 L 256.5 151 L 254 147 L 250 147 L 250 153.5 L 247.5 159 Q 246.5 155 240.5 156 L 238 157 L 236.5 163 L 233.5 162 L 232.5 163 L 205.5 163 L 202.5 166 L 204 163.5 Q 205.3 158.3 202.5 157 L 196.5 156 L 194 157.5 L 195 155.5 L 194 152.5 L 191.5 140 L 183.5 151 L 173.5 146 L 152.5 142 L 143 138.5 Q 141.8 133.3 144.5 132 L 159.5 136 L 164.5 136 L 171.5 138 L 179.5 138 L 190 136 L 190.5 134 Q 191.8 136.3 193 133.5 L 193 124.5 L 192 123.5 L 194 116.5 L 188 106.5 L 169.5 88 L 152 72.5 Q 150.9 69.2 153.5 70 L 153 68.5 L 152 60.5 L 156 59 L 158 69.5 L 170.5 82 Q 178.4 90.6 189.5 96 L 195.5 98 Q 203.5 97.3 208 99 L 207 106 L 209.5 107 L 227.5 107 L 233 105 L 233 98 L 236.5 98 L 238.5 99 Q 240 96.5 245.5 98 L 255.5 94 L 283 70.5 L 286 64.5 L 285 62.5 L 286 60 L 289 61.5 Q 288.3 63.8 290.5 63 L 304 52 Q 302.9 49.3 305.5 50 L 310.5 43 Z M 289 63 L 288 69 L 288 70 L 291 69 Q 292 65 289 66 L 289 63 Z M 201 115 Q 200 119 203 118 Q 204 114 201 115 Z M 239 116 L 240 118 Q 241 115 239 116 Z M 218 133 Q 215 135 216 140 L 223 139 Q 227 137 224 135 L 220 137 L 218 133 Z M 201 134 L 201 135 L 203 135 L 201 134 Z M 239 134 L 239 135 L 242 135 L 239 134 Z " /><path fill="rgb(158,163,167)" stroke="rgb(158,163,167)" stroke-width="1" opacity="0.9294117647058824" d="M 216.5 82 L 228.5 83 L 233 86.5 L 232.5 90 L 231 89.5 Q 231.8 92.1 228.5 91 L 227.5 92 L 215.5 92 L 208 89 Q 207.3 85.2 210.5 84 L 216.5 82 Z " /><path fill="rgb(158,163,167)" stroke="rgb(158,163,167)" stroke-width="1" opacity="0.9294117647058824" d="M 81.5 104 L 84 105.5 L 82.5 106 L 81.5 104 Z " /><path fill="rgb(158,163,167)" stroke="rgb(158,163,167)" stroke-width="1" opacity="0.9294117647058824" d="M 140 122 L 143 123.5 L 141.5 126 L 140 122 Z " /><path fill="rgb(158,163,167)" stroke="rgb(158,163,167)" stroke-width="1" opacity="0.9294117647058824" d="M 299 122 L 302 123.5 L 299 125 L 299 122 Z " /><path fill="rgb(158,163,167)" stroke="rgb(158,163,167)" stroke-width="1" opacity="0.9294117647058824" d="M 130.5 131 Q 136.8 128.8 135 134.5 L 137 137.5 L 135 137.5 L 134.5 139 L 132 135.5 L 133 134.5 L 130.5 131 Z " /><path fill="rgb(158,163,167)" stroke="rgb(158,163,167)" stroke-width="1" opacity="0.9294117647058824" d="M 306 131 L 311 131.5 L 308 134.5 L 308 136.5 L 306.5 139 L 306 137.5 Q 310 135.5 306 133.5 L 306 131 Z " /><path fill="rgb(33,33,34)" stroke="rgb(33,33,34)" stroke-width="1" opacity="0.9764705882352941" d="M 176.5 1 L 184 1.5 L 181.5 3 L 179.5 3 L 146.5 20 L 129 27 L 131 41.5 Q 128.3 45.6 123 45 Q 121.9 47.7 124.5 47 L 150.5 70 L 150 68.5 L 152.5 62 L 153 68.5 L 155 70.5 L 153.5 70 Q 150.9 69.2 152 72.5 L 188 106.5 L 194 118.5 L 192.5 123 L 186 113.5 L 126.5 54 L 117.5 52 L 114 48.5 L 113 41 L 99.5 46 L 64.5 52 L 45 60 L 50.5 52 L 63.5 45 Q 84.5 39.5 102.5 31 L 111.5 30 L 122.5 24 L 132.5 22 L 161.5 7 L 176.5 1 Z M 125 33 L 125 34 L 127 34 L 125 33 Z " /><path fill="rgb(33,33,34)" stroke="rgb(33,33,34)" stroke-width="1" opacity="0.9764705882352941" d="M 257.5 1 L 268.5 2 L 308.5 22 L 315.5 23 L 329.5 30 L 338.5 31 L 374.5 44 L 387.5 50 L 394 55.5 L 396 60.5 L 394.5 60 L 376.5 52 L 341.5 46 L 328 41 Q 328.9 47.8 326 51 L 314.5 54 L 257 111.5 L 248.5 123 L 248 114.5 L 251 109.5 L 277.5 83 L 280.5 81 L 308.5 54 L 318 47 Q 319.3 44 315.5 45 L 310 43 L 311 40.5 Q 310 31.5 312 27 L 294.5 20 L 260.5 2 L 257.5 2 L 257.5 1 Z " /><path fill="rgb(33,33,34)" stroke="rgb(33,33,34)" stroke-width="1" opacity="0.9764705882352941" d="M 288.5 63 L 289 66 Q 292 64.8 291 68.5 L 286.5 71 L 288 68.5 L 288.5 63 Z " /><path fill="rgb(33,33,34)" stroke="rgb(33,33,34)" stroke-width="1" opacity="0.9764705882352941" d="M 285.5 64 L 286 66.5 L 285 66.5 L 285.5 64 Z " /><path fill="rgb(33,33,34)" stroke="rgb(33,33,34)" stroke-width="1" opacity="0.9764705882352941" d="M 31.5 71 L 37.5 71 L 48.5 76 L 89.5 108 L 99.5 111 L 127.5 130 L 130 130 L 133 134.5 L 133 136.5 L 134.5 139 L 136 135.5 L 135 131.5 L 136.5 132 Q 139.3 132.6 138 126.5 L 139.5 123 L 141.5 126 L 142.5 124 L 144 132.5 Q 141.7 133.7 143 138.5 L 152.5 142 L 173.5 146 L 183.5 151 L 191.5 140 L 195 153.5 L 194 156.5 L 194.5 158 Q 195.5 155 200.5 156 L 204 158.5 L 204.5 164 L 205.5 163 L 232.5 163 L 235.5 162 L 237 162.5 L 238 157 L 244.5 156 Q 246.8 161.2 249 157.5 L 250 147 L 254 147 L 254 148.5 L 257.5 151 L 269.5 145 L 295.5 140 L 297 138.5 L 296 133.5 L 298.5 123 L 299 125 L 301.5 124 Q 304.8 125.9 303 132 L 305.5 131 L 307.5 135 L 311 130 L 313.5 130 L 341.5 111 L 351.5 108 L 394.5 75 Q 400 70.8 409 71 L 409 72.5 L 393.5 88 L 371 104.5 Q 370.3 106.8 372.5 106 L 374 107.5 L 374 129.5 L 370.5 134 L 364.5 137 L 360.5 137 L 358.5 135 L 351.5 133 L 320.5 141 L 316.5 141 L 308.5 147 L 304 148 L 302.5 145 L 276.5 152 L 272.5 152 L 253 160 L 249 169.5 L 249 175.5 L 249 177.5 L 248 200 L 241 201 Q 240.4 209.9 234.5 215 Q 226.6 217.6 214.5 216 Q 212.8 213.2 206.5 215 L 205 213.5 L 201 206.5 L 200 201 L 193 200 L 192 175.5 L 190 173.5 L 189 162.5 L 186.5 159 L 171.5 153 L 138.5 145 L 137 148 L 132.5 147 Q 129.6 142.4 123.5 141 L 111.5 139 L 94.5 134 L 85.5 134 Q 83.3 137.8 76.5 137 L 68 131.5 Q 65.7 128.3 67 121.5 L 67 119.5 L 67 107.5 L 68.5 106 Q 70.8 106.8 70 104.5 L 45 85.5 L 43.5 83 L 40.5 81 L 31.5 71 Z M 308 136 L 306 139 L 308 138 L 308 136 Z " /><path fill="rgb(33,33,34)" stroke="rgb(33,33,34)" stroke-width="1" opacity="0.9764705882352941" d="M 208 89 Q 214.1 93.6 227.5 92 L 231 91 L 231.5 89 L 233 90.5 L 233 105 L 227.5 107 L 209.5 107 L 207 106 L 208 102.5 L 208 89 Z " /><path fill="rgb(33,33,34)" stroke="rgb(33,33,34)" stroke-width="1" opacity="0.9764705882352941" d="M 203.5 114 L 205 114.5 L 203 115 Q 204.3 119.1 201 118 Q 199.5 114.2 202.5 115 L 203.5 114 Z " /><path fill="rgb(33,33,34)" stroke="rgb(33,33,34)" stroke-width="1" opacity="0.9764705882352941" d="M 238.5 116 Q 240.8 115.3 240 117.5 L 238.5 116 Z " /><path fill="rgb(33,33,34)" stroke="rgb(33,33,34)" stroke-width="1" opacity="0.9764705882352941" d="M 192.5 124 L 193 133.5 L 191 134.5 L 192.5 124 Z " /><path fill="rgb(33,33,34)" stroke="rgb(33,33,34)" stroke-width="1" opacity="0.9764705882352941" d="M 217.5 133 L 219.5 137 L 223.5 135 Q 227 137 222.5 139 L 216 140 Q 215.1 135.3 217.5 133 Z " /><path fill="rgb(33,33,34)" stroke="rgb(33,33,34)" stroke-width="1" opacity="0.9764705882352941" d="M 200.5 134 L 203 134.5 L 200.5 135 L 200.5 134 Z " /><path fill="rgb(33,33,34)" stroke="rgb(33,33,34)" stroke-width="1" opacity="0.9764705882352941" d="M 238.5 134 L 242 134.5 L 238.5 135 L 238.5 134 Z " /></svg>